Bodoni-24-Fatface.ufo
<glyph name="numbersign" format="2">
  <advance width="630"/>
  <unicode hex="0023"/>
  <outline>
    <contour>
      <point x="30" y="256" type="line"/>
      <point x="570" y="256" type="line"/>
      <point x="570" y="247" type="line"/>
      <point x="30" y="247" type="line"/>
    </contour>
    <contour>
      <point x="60" y="518" type="line"/>
      <point x="600" y="518" type="line"/>
      <point x="600" y="509" type="line"/>
      <point x="60" y="509" type="line"/>
    </contour>
    <contour>
      <point x="452" y="754" type="line"/>
      <point x="461" y="755" type="line"/>
      <point x="361" y="-5" type="line"/>
      <point x="352" y="-6" type="line"/>
    </contour>
    <contour>
      <point x="259" y="755" type="line"/>
      <point x="268" y="755" type="line"/>
      <point x="168" y="-5" type="line"/>
      <point x="159" y="-5" type="line"/>
    </contour>
  </outline>
</glyph>
<glyph name="dollar" format="2">
  <advance width="2600"/>
  <unicode hex="0024"/>
  <outline>
    <contour>
      <point x="1320" y="3400" type="line"/>
      <point x="1366" y="3400" type="line"/>
      <point x="1366" y="-328" type="line"/>
      <point x="1320" y="-328" type="line"/>
    </contour>
    <contour>
      <point x="1035" y="3400" type="line"/>
      <point x="1081" y="3400" type="line"/>
      <point x="1081" y="-328" type="line"/>
      <point x="1035" y="-328" type="line"/>
    </contour>
    <contour>
      <point x="2167" y="2663" type="curve"/>
      <point x="2050" y="2906"/>
      <point x="1670" y="3063"/>
      <point x="1307" y="3063" type="curve" smooth="yes"/>
      <point x="1037" y="3063"/>
      <point x="778" y="2932"/>
      <point x="778" y="2666" type="curve" smooth="yes"/>
      <point x="778" y="1982"/>
      <point x="2437" y="2171"/>
      <point x="2437" y="942" type="curve" smooth="yes"/>
      <point x="2437" y="369"/>
      <point x="1990" y="-61"/>
      <point x="1290" y="-61" type="curve" smooth="yes"/>
      <point x="487" y="-61"/>
      <point x="102" y="328"/>
      <point x="102" y="676" type="curve" smooth="yes"/>
      <point x="102" y="946"/>
      <point x="270" y="1135"/>
      <point x="532" y="1135" type="curve" smooth="yes"/>
      <point x="737" y="1135"/>
      <point x="918" y="962"/>
      <point x="918" y="700" type="curve" smooth="yes"/>
      <point x="918" y="454"/>
      <point x="676" y="352"/>
      <point x="496" y="352" type="curve" smooth="yes"/>
      <point x="357" y="352"/>
      <point x="238" y="417"/>
      <point x="189" y="528" type="curve"/>
      <point x="278" y="266"/>
      <point x="622" y="-16"/>
      <point x="1249" y="-16" type="curve" smooth="yes"/>
      <point x="1683" y="-16"/>
      <point x="1864" y="181"/>
      <point x="1864" y="488" type="curve" smooth="yes"/>
      <point x="1864" y="1254"/>
      <point x="205" y="921"/>
      <point x="205" y="2232" type="curve" smooth="yes"/>
      <point x="205" y="2764"/>
      <point x="761" y="3113"/>
      <point x="1257" y="3113" type="curve" smooth="yes"/>
      <point x="1740" y="3113"/>
      <point x="2273" y="2892"/>
      <point x="2273" y="2478" type="curve" smooth="yes"/>
      <point x="2273" y="2208"/>
      <point x="2126" y="2060"/>
      <point x="1864" y="2060" type="curve" smooth="yes"/>
      <point x="1659" y="2060"/>
      <point x="1479" y="2183"/>
      <point x="1479" y="2433" type="curve" smooth="yes"/>
      <point x="1479" y="2666"/>
      <point x="1667" y="2802"/>
      <point x="1847" y="2802" type="curve" smooth="yes"/>
      <point x="1966" y="2802"/>
      <point x="2082" y="2766"/>
    </contour>
  </outline>
</glyph>
<glyph name="percent" format="2">
  <advance width="4259"/>
  <unicode hex="0025"/>
  <outline>
    <contour>
      <point x="2970" y="860" type="curve" smooth="yes"/>
      <point x="2970" y="188"/>
      <point x="3035" y="-4"/>
      <point x="3133" y="-4" type="curve" smooth="yes"/>
      <point x="3231" y="-4"/>
      <point x="3297" y="188"/>
      <point x="3297" y="860" type="curve" smooth="yes"/>
      <point x="3297" y="1532"/>
      <point x="3231" y="1724"/>
      <point x="3133" y="1724" type="curve" smooth="yes"/>
      <point x="3035" y="1724"/>
      <point x="2970" y="1532"/>
    </contour>
    <contour>
      <point x="2150" y="860" type="curve" smooth="yes"/>
      <point x="2150" y="1446"/>
      <point x="2670" y="1761"/>
      <point x="3133" y="1761" type="curve" smooth="yes"/>
      <point x="3596" y="1761"/>
      <point x="4116" y="1446"/>
      <point x="4116" y="860" type="curve" smooth="yes"/>
      <point x="4116" y="274"/>
      <point x="3514" y="-41"/>
      <point x="3133" y="-41" type="curve" smooth="yes"/>
      <point x="2670" y="-41"/>
      <point x="2150" y="274"/>
    </contour>
    <contour>
      <point x="3170" y="3072" type="line"/>
      <point x="3215" y="3072" type="line"/>
      <point x="1090" y="0" type="line"/>
      <point x="1044" y="0" type="line"/>
    </contour>
    <contour>
      <point x="963" y="2212" type="curve" smooth="yes"/>
      <point x="963" y="1540"/>
      <point x="1028" y="1348"/>
      <point x="1126" y="1348" type="curve" smooth="yes"/>
      <point x="1224" y="1348"/>
      <point x="1290" y="1540"/>
      <point x="1290" y="2212" type="curve" smooth="yes"/>
      <point x="1290" y="2884"/>
      <point x="1224" y="3076"/>
      <point x="1126" y="3076" type="curve" smooth="yes"/>
      <point x="1028" y="3076"/>
      <point x="963" y="2884"/>
    </contour>
    <contour>
      <point x="143" y="2212" type="curve" smooth="yes"/>
      <point x="143" y="2798"/>
      <point x="663" y="3113"/>
      <point x="1126" y="3113" type="curve" smooth="yes"/>
      <point x="1589" y="3113"/>
      <point x="2109" y="2798"/>
      <point x="2109" y="2212" type="curve" smooth="yes"/>
      <point x="2109" y="1626"/>
      <point x="1507" y="1311"/>
      <point x="1126" y="1311" type="curve" smooth="yes"/>
      <point x="663" y="1311"/>
      <point x="143" y="1626"/>
    </contour>
  </outline>
</glyph>
<glyph name="ampersand" format="2">
  <advance width="7352"/>
  <unicode hex="0026"/>
  <outline>
    <contour>
      <point x="4992" y="3680" type="line"/>
      <point x="6912" y="3680" type="line"/>
      <point x="6912" y="3608" type="line"/>
      <point x="4992" y="3608" type="line"/>
    </contour>
    <contour>
      <point x="6120" y="3648" type="line"/>
      <point x="5920" y="1864"/>
      <point x="4816" y="-80"/>
      <point x="2392" y="-80" type="curve" smooth="yes"/>
      <point x="928" y="-80"/>
      <point x="320" y="616"/>
      <point x="320" y="1440" type="curve" smooth="yes"/>
      <point x="320" y="2776"/>
      <point x="2224" y="3120"/>
      <point x="2848" y="3496" type="curve" smooth="yes"/>
      <point x="3488" y="3912"/>
      <point x="3848" y="3760"/>
      <point x="3848" y="5120" type="curve" smooth="yes"/>
      <point x="3848" y="5656"/>
      <point x="3768" y="6024"/>
      <point x="3472" y="6024" type="curve" smooth="yes"/>
      <point x="3216" y="6024"/>
      <point x="3088" y="5704"/>
      <point x="3088" y="5360" type="curve" smooth="yes"/>
      <point x="3088" y="5000"/>
      <point x="3368" y="4432"/>
      <point x="3712" y="3920" type="curve" smooth="yes"/>
      <point x="6224" y="72" type="line"/>
      <point x="7192" y="72" type="line"/>
      <point x="7192" y="0" type="line"/>
      <point x="4360" y="0" type="line"/>
      <point x="1712" y="3920" type="line" smooth="yes"/>
      <point x="1504" y="4224"/>
      <point x="1344" y="4624"/>
      <point x="1344" y="4904" type="curve" smooth="yes"/>
      <point x="1344" y="5624"/>
      <point x="2184" y="6080"/>
      <point x="3512" y="6080" type="curve" smooth="yes"/>
      <point x="4768" y="6080"/>
      <point x="5480" y="5736"/>
      <point x="5480" y="5144" type="curve" smooth="yes"/>
      <point x="5480" y="4200"/>
      <point x="4120" y="4344"/>
      <point x="2800" y="3448" type="curve" smooth="yes"/>
      <point x="2312" y="3120"/>
      <point x="2112" y="3240"/>
      <point x="2112" y="2192" type="curve" smooth="yes"/>
      <point x="2112" y="1168"/>
      <point x="2712" y="264"/>
      <point x="3464" y="264" type="curve" smooth="yes"/>
      <point x="4640" y="264"/>
      <point x="5888" y="1832"/>
      <point x="6048" y="3648" type="curve"/>
    </contour>
  </outline>
</glyph>
<glyph name="parenleft" format="2">
  <advance width="3056"/>
  <unicode hex="0028"/>
  <outline>
    <contour>
      <point x="2936" y="-1304" type="curve"/>
      <point x="2904" y="-1360" type="line"/>
      <point x="1600" y="-800"/>
      <point x="520" y="736"/>
      <point x="520" y="2600" type="curve" smooth="yes"/>
      <point x="520" y="4464"/>
      <point x="1600" y="5840"/>
      <point x="2904" y="6400" type="curve"/>
      <point x="2936" y="6344" type="line"/>
      <point x="2344" y="5944"/>
      <point x="2240" y="4136"/>
      <point x="2240" y="2600" type="curve" smooth="yes"/>
      <point x="2240" y="1064"/>
      <point x="2344" y="-904"/>
    </contour>
  </outline>
</glyph>
<glyph name="plus" format="2">
  <advance width="530"/>
  <unicode hex="002B"/>
  <outline>
    <contour>
      <point x="260" y="110" type="line"/>
      <point x="260" y="520" type="line"/>
      <point x="270" y="520" type="line"/>
      <point x="270" y="110" type="line"/>
    </contour>
    <contour>
      <point x="60" y="321" type="line"/>
      <point x="470" y="321" type="line"/>
      <point x="470" y="311" type="line"/>
      <point x="60" y="311" type="line"/>
    </contour>
  </outline>
</glyph>
<glyph name="comma" format="2">
  <advance width="1372"/>
  <unicode hex="002C"/>
  <outline>
    <contour>
      <point x="164" y="446" type="curve" smooth="yes"/>
      <point x="164" y="704"/>
      <point x="405" y="934"/>
      <point x="684" y="934" type="curve" smooth="yes"/>
      <point x="967" y="934"/>
      <point x="1217" y="684"/>
      <point x="1217" y="262" type="curve" smooth="yes"/>
      <point x="1217" y="-270"/>
      <point x="770" y="-639"/>
      <point x="156" y="-639" type="curve"/>
      <point x="156" y="-601" type="line"/>
      <point x="729" y="-601"/>
      <point x="1263" y="-240"/>
      <point x="1164" y="418" type="curve"/>
      <point x="1123" y="181"/>
      <point x="911" y="-41"/>
      <point x="644" y="-41" type="curve" smooth="yes"/>
      <point x="361" y="-41"/>
      <point x="164" y="188"/>
    </contour>
  </outline>
</glyph>
<glyph name="one" format="2">
  <advance width="2272"/>
  <unicode hex="0031"/>
  <outline>
    <contour>
      <point x="205" y="37" type="line"/>
      <point x="2068" y="37" type="line"/>
      <point x="2068" y="0" type="line"/>
      <point x="205" y="0" type="line"/>
    </contour>
    <contour>
      <point x="274" y="3072" type="line"/>
      <point x="1618" y="3072" type="line"/>
      <point x="1618" y="19" type="line"/>
      <point x="737" y="19" type="line"/>
      <point x="737" y="3035" type="line"/>
      <point x="274" y="3035" type="line"/>
    </contour>
  </outline>
</glyph>
<glyph name="two" format="2">
  <advance width="650"/>
  <unicode hex="0032"/>
  <outline>
    <contour>
      <point x="615" y="0" type="line"/>
      <point x="40" y="0" type="line"/>
      <point x="40" y="135" type="line"/>
      <point x="245" y="265" type="line" smooth="yes"/>
      <point x="330" y="320"/>
      <point x="374" y="386"/>
      <point x="374" y="510" type="curve" smooth="yes"/>
      <point x="374" y="644"/>
      <point x="317" y="724"/>
      <point x="239" y="724" type="curve" smooth="yes"/>
      <point x="146" y="724"/>
      <point x="63" y="648"/>
      <point x="61" y="554" type="curve"/>
      <point x="75" y="603"/>
      <point x="120" y="642"/>
      <point x="173" y="642" type="curve" smooth="yes"/>
      <point x="248" y="642"/>
      <point x="298" y="591"/>
      <point x="298" y="526" type="curve" smooth="yes"/>
      <point x="298" y="456"/>
      <point x="230" y="407"/>
      <point x="165" y="407" type="curve" smooth="yes"/>
      <point x="100" y="407"/>
      <point x="49" y="457"/>
      <point x="49" y="549" type="curve" smooth="yes"/>
      <point x="49" y="666"/>
      <point x="158" y="760"/>
      <point x="325" y="760" type="curve" smooth="yes"/>
      <point x="496" y="760"/>
      <point x="594" y="680"/>
      <point x="594" y="570" type="curve" smooth="yes"/>
      <point x="594" y="440"/>
      <point x="458" y="383"/>
      <point x="364" y="325" type="curve" smooth="yes"/>
      <point x="178" y="210" type="line"/>
      <point x="606" y="210" type="line"/>
      <point x="606" y="285" type="line"/>
      <point x="615" y="285" type="line"/>
    </contour>
  </outline>
</glyph>
<glyph name="three" format="2">
  <advance width="4968"/>
  <unicode hex="0033"/>
  <outline>
    <contour>
      <point x="4648" y="1680" type="curve" smooth="yes"/>
      <point x="4648" y="560"/>
      <point x="3536" y="-80"/>
      <point x="2248" y="-80" type="curve" smooth="yes"/>
      <point x="872" y="-80"/>
      <point x="200" y="752"/>
      <point x="200" y="1488" type="curve" smooth="yes"/>
      <point x="200" y="2056"/>
      <point x="600" y="2448"/>
      <point x="1120" y="2448" type="curve" smooth="yes"/>
      <point x="1600" y="2448"/>
      <point x="1952" y="2096"/>
      <point x="1952" y="1568" type="curve" smooth="yes"/>
      <point x="1952" y="1072"/>
      <point x="1528" y="720"/>
      <point x="1056" y="720" type="curve" smooth="yes"/>
      <point x="760" y="720"/>
      <point x="560" y="824"/>
      <point x="432" y="984" type="curve"/>
      <point x="624" y="528"/>
      <point x="1152" y="64"/>
      <point x="1976" y="64" type="curve" smooth="yes"/>
      <point x="2768" y="64"/>
      <point x="2880" y="688"/>
      <point x="2880" y="1680" type="curve" smooth="yes"/>
      <point x="2880" y="2512"/>
      <point x="2656" y="3208"/>
      <point x="1704" y="3208" type="curve"/>
      <point x="1704" y="3264" type="line"/>
      <point x="3792" y="3264"/>
      <point x="4648" y="2640"/>
    </contour>
    <contour>
      <point x="1704" y="3224" type="curve"/>
      <point x="1704" y="3280" type="line"/>
      <point x="2576" y="3280"/>
      <point x="2640" y="4136"/>
      <point x="2640" y="4728" type="curve" smooth="yes"/>
      <point x="2640" y="5400"/>
      <point x="2488" y="5936"/>
      <point x="2016" y="5936" type="curve" smooth="yes"/>
      <point x="1528" y="5936"/>
      <point x="1056" y="5656"/>
      <point x="856" y="5384" type="curve"/>
      <point x="992" y="5544"/>
      <point x="1192" y="5592"/>
      <point x="1376" y="5592" type="curve" smooth="yes"/>
      <point x="1768" y="5592"/>
      <point x="2152" y="5272"/>
      <point x="2152" y="4792" type="curve" smooth="yes"/>
      <point x="2152" y="4272"/>
      <point x="1736" y="3904"/>
      <point x="1296" y="3904" type="curve" smooth="yes"/>
      <point x="816" y="3904"/>
      <point x="440" y="4192"/>
      <point x="440" y="4720" type="curve" smooth="yes"/>
      <point x="440" y="5536"/>
      <point x="1432" y="6072"/>
      <point x="2248" y="6072" type="curve" smooth="yes"/>
      <point x="3456" y="6072"/>
      <point x="4408" y="5528"/>
      <point x="4408" y="4648" type="curve" smooth="yes"/>
      <point x="4408" y="3848"/>
      <point x="3712" y="3224"/>
    </contour>
  </outline>
</glyph>
<glyph name="four" format="2">
  <advance width="2804"/>
  <unicode hex="0034"/>
  <outline>
    <contour>
      <point x="2621" y="37" type="line"/>
      <point x="2621" y="0" type="line"/>
      <point x="1044" y="0" type="line"/>
      <point x="1044" y="37" type="line"/>
      <point x="1434" y="37" type="line"/>
      <point x="1434" y="2626" type="line"/>
      <point x="216" y="899" type="line"/>
      <point x="2765" y="899" type="line"/>
      <point x="2765" y="861" type="line"/>
      <point x="143" y="861" type="line"/>
      <point x="1700" y="3072" type="line"/>
      <point x="2314" y="3072" type="line"/>
      <point x="2314" y="37" type="line"/>
    </contour>
  </outline>
</glyph>
<glyph name="five" format="2">
  <advance width="4560"/>
  <unicode hex="0035"/>
  <outline>
    <contour>
      <point x="4040" y="4320" type="line"/>
      <point x="448" y="4320" type="line"/>
      <point x="448" y="2696" type="line"/>
      <point x="376" y="2696" type="line"/>
      <point x="376" y="6000" type="line"/>
      <point x="3968" y="6000" type="line"/>
      <point x="3968" y="6440" type="line"/>
      <point x="4040" y="6440" type="line"/>
    </contour>
    <contour>
      <point x="280" y="600" type="curve"/>
      <point x="408" y="296"/>
      <point x="936" y="24"/>
      <point x="1456" y="24" type="curve" smooth="yes"/>
      <point x="2168" y="24"/>
      <point x="2520" y="648"/>
      <point x="2520" y="1720" type="curve" smooth="yes"/>
      <point x="2520" y="2952"/>
      <point x="2280" y="3376"/>
      <point x="1648" y="3376" type="curve" smooth="yes"/>
      <point x="1144" y="3376"/>
      <point x="680" y="3104"/>
      <point x="480" y="2696" type="curve"/>
      <point x="416" y="2696" type="line"/>
      <point x="624" y="3152"/>
      <point x="1128" y="3520"/>
      <point x="2016" y="3520" type="curve" smooth="yes"/>
      <point x="3384" y="3520"/>
      <point x="4320" y="2920"/>
      <point x="4320" y="1720" type="curve" smooth="yes"/>
      <point x="4320" y="600"/>
      <point x="3176" y="-80"/>
      <point x="1728" y="-80" type="curve" smooth="yes"/>
      <point x="832" y="-80"/>
      <point x="-80" y="296"/>
      <point x="-80" y="1192" type="curve" smooth="yes"/>
      <point x="-80" y="1760"/>
      <point x="336" y="2168"/>
      <point x="856" y="2168" type="curve" smooth="yes"/>
      <point x="1376" y="2168"/>
      <point x="1792" y="1840"/>
      <point x="1792" y="1280" type="curve" smooth="yes"/>
      <point x="1792" y="760"/>
      <point x="1328" y="320"/>
      <point x="808" y="320" type="curve" smooth="yes"/>
      <point x="568" y="320"/>
      <point x="400" y="432"/>
    </contour>
  </outline>
</glyph>
<glyph name="six" format="2">
  <advance width="5280"/>
  <unicode hex="0036"/>
  <outline>
    <contour>
      <point x="3200" y="2000" type="curve" smooth="yes"/>
      <point x="3200" y="3472"/>
      <point x="3040" y="3768"/>
      <point x="2728" y="3768" type="curve" smooth="yes"/>
      <point x="2368" y="3768"/>
      <point x="2240" y="3440"/>
      <point x="2240" y="2240" type="curve"/>
      <point x="2184" y="2240" type="line"/>
      <point x="2184" y="3352"/>
      <point x="2216" y="3960"/>
      <point x="3048" y="3960" type="curve" smooth="yes"/>
      <point x="4016" y="3960"/>
      <point x="5040" y="3360"/>
      <point x="5040" y="2000" type="curve" smooth="yes"/>
      <point x="5040" y="800"/>
      <point x="4120" y="-80"/>
      <point x="2752" y="-80" type="curve" smooth="yes"/>
      <point x="1384" y="-80"/>
      <point x="400" y="800"/>
      <point x="400" y="2480" type="curve" smooth="yes"/>
      <point x="400" y="4424"/>
      <point x="2016" y="6080"/>
      <point x="4440" y="6080" type="curve"/>
      <point x="4440" y="6016" type="line"/>
      <point x="2968" y="6016"/>
      <point x="2224" y="4376"/>
      <point x="2224" y="2808" type="curve"/>
      <point x="2240" y="2240" type="line"/>
      <point x="2240" y="768"/>
      <point x="2384" y="-8"/>
      <point x="2776" y="-8" type="curve" smooth="yes"/>
      <point x="3168" y="-8"/>
      <point x="3200" y="688"/>
    </contour>
  </outline>
</glyph>
<glyph name="seven" format="2">
  <advance width="4600"/>
  <unicode hex="0037"/>
  <outline>
    <contour>
      <point x="1024" y="848" type="curve" smooth="yes"/>
      <point x="1024" y="1480"/>
      <point x="1920" y="2160"/>
      <point x="2552" y="3024" type="curve" smooth="yes"/>
      <point x="2792" y="3352"/>
      <point x="2960" y="3584"/>
      <point x="3384" y="4280" type="curve"/>
      <point x="392" y="4280" type="line"/>
      <point x="392" y="3680" type="line"/>
      <point x="320" y="3680" type="line"/>
      <point x="320" y="6000" type="line"/>
      <point x="4520" y="6000" type="line"/>
      <point x="4520" y="6000"/>
      <point x="3432" y="4096"/>
      <point x="2736" y="3104" type="curve" smooth="yes"/>
      <point x="2312" y="2496"/>
      <point x="2224" y="2400"/>
      <point x="2224" y="2176" type="curve" smooth="yes"/>
      <point x="2224" y="1752"/>
      <point x="3024" y="1632"/>
      <point x="3024" y="864" type="curve" smooth="yes"/>
      <point x="3024" y="328"/>
      <point x="2624" y="-80"/>
      <point x="2032" y="-80" type="curve" smooth="yes"/>
      <point x="1480" y="-80"/>
      <point x="1024" y="216"/>
    </contour>
  </outline>
</glyph>
<glyph name="eight" format="2">
  <advance width="5200"/>
  <unicode hex="0038"/>
  <outline>
    <contour>
      <point x="2240" y="4480" type="curve" smooth="yes"/>
      <point x="2240" y="3408"/>
      <point x="2368" y="3160"/>
      <point x="2600" y="3160" type="curve" smooth="yes"/>
      <point x="2832" y="3160"/>
      <point x="2960" y="3408"/>
      <point x="2960" y="4480" type="curve" smooth="yes"/>
      <point x="2960" y="5472"/>
      <point x="2832" y="5920"/>
      <point x="2600" y="5920" type="curve" smooth="yes"/>
      <point x="2368" y="5920"/>
      <point x="2240" y="5472"/>
    </contour>
    <contour>
      <point x="480" y="4480" type="curve" smooth="yes"/>
      <point x="480" y="5360"/>
      <point x="1232" y="6080"/>
      <point x="2600" y="6080" type="curve" smooth="yes"/>
      <point x="3968" y="6080"/>
      <point x="4720" y="5360"/>
      <point x="4720" y="4480" type="curve" smooth="yes"/>
      <point x="4720" y="3600"/>
      <point x="3968" y="3040"/>
      <point x="2600" y="3040" type="curve" smooth="yes"/>
      <point x="1232" y="3040"/>
      <point x="480" y="3600"/>
    </contour>
    <contour>
      <point x="2080" y="1520" type="curve" smooth="yes"/>
      <point x="2080" y="608"/>
      <point x="2208" y="80"/>
      <point x="2600" y="80" type="curve" smooth="yes"/>
      <point x="2992" y="80"/>
      <point x="3120" y="608"/>
      <point x="3120" y="1520" type="curve" smooth="yes"/>
      <point x="3120" y="2432"/>
      <point x="2992" y="3000"/>
      <point x="2600" y="3000" type="curve" smooth="yes"/>
      <point x="2208" y="3000"/>
      <point x="2080" y="2432"/>
    </contour>
    <contour>
      <point x="320" y="1520" type="curve" smooth="yes"/>
      <point x="320" y="2480"/>
      <point x="1072" y="3120"/>
      <point x="2600" y="3120" type="curve" smooth="yes"/>
      <point x="4128" y="3120"/>
      <point x="4880" y="2480"/>
      <point x="4880" y="1520" type="curve" smooth="yes"/>
      <point x="4880" y="560"/>
      <point x="4128" y="-80"/>
      <point x="2600" y="-80" type="curve" smooth="yes"/>
      <point x="1072" y="-80"/>
      <point x="320" y="560"/>
    </contour>
  </outline>
</glyph>
<glyph name="less" format="2">
  <advance width="2293"/>
  <unicode hex="003C"/>
  <outline>
    <contour>
      <point x="246" y="1573" type="line"/>
      <point x="246" y="1610" type="line"/>
      <point x="2048" y="2458" type="line"/>
      <point x="2048" y="2421" type="line"/>
    </contour>
    <contour>
      <point x="246" y="1565" type="line"/>
      <point x="246" y="1602" type="line"/>
      <point x="2048" y="754" type="line"/>
      <point x="2048" y="717" type="line"/>
    </contour>
  </outline>
</glyph>
<glyph name="question" format="2">
  <advance width="4960"/>
  <unicode hex="003F"/>
  <outline>
    <contour>
      <point x="2016" y="2936" type="line"/>
      <point x="2632" y="3184"/>
      <point x="2792" y="3736"/>
      <point x="2792" y="4480" type="curve" smooth="yes"/>
      <point x="2792" y="5232"/>
      <point x="2728" y="5944"/>
      <point x="2096" y="5944" type="curve" smooth="yes"/>
      <point x="1408" y="5944"/>
      <point x="776" y="5400"/>
      <point x="672" y="4976" type="curve"/>
      <point x="720" y="5080"/>
      <point x="976" y="5280"/>
      <point x="1320" y="5280" type="curve" smooth="yes"/>
      <point x="1792" y="5280"/>
      <point x="2192" y="5000"/>
      <point x="2192" y="4520" type="curve" smooth="yes"/>
      <point x="2192" y="4000"/>
      <point x="1856" y="3672"/>
      <point x="1336" y="3672" type="curve" smooth="yes"/>
      <point x="776" y="3672"/>
      <point x="480" y="4040"/>
      <point x="480" y="4568" type="curve" smooth="yes"/>
      <point x="480" y="5304"/>
      <point x="1232" y="6080"/>
      <point x="2448" y="6080" type="curve" smooth="yes"/>
      <point x="3736" y="6080"/>
      <point x="4560" y="5440"/>
      <point x="4560" y="4480" type="curve" smooth="yes"/>
      <point x="4560" y="3560"/>
      <point x="3624" y="2960"/>
      <point x="2096" y="2888" type="curve"/>
      <point x="2096" y="2232" type="line"/>
      <point x="2016" y="2232" type="line"/>
    </contour>
    <component base="period" xOffset="1032"/>
  </outline>
</glyph>
<glyph name="at" format="2">
  <advance width="4136"/>
  <unicode hex="0040"/>
  <outline>
    <contour>
      <point x="2248" y="1501" type="curve" smooth="yes"/>
      <point x="2248" y="837"/>
      <point x="1991" y="286"/>
      <point x="1459" y="286" type="curve" smooth="yes"/>
      <point x="1086" y="286"/>
      <point x="836" y="516"/>
      <point x="836" y="942" type="curve" smooth="yes"/>
      <point x="836" y="1556"/>
      <point x="1261" y="2166"/>
      <point x="1774" y="2166" type="curve" smooth="yes"/>
      <point x="2179" y="2166"/>
      <point x="2248" y="1837"/>
    </contour>
    <contour>
      <point x="2208" y="1418" type="curve" smooth="yes"/>
      <point x="2208" y="1590"/>
      <point x="2204" y="1882"/>
      <point x="2110" y="1882" type="curve" smooth="yes"/>
      <point x="1974" y="1882"/>
      <point x="1740" y="1505"/>
      <point x="1740" y="997" type="curve" smooth="yes"/>
      <point x="1740" y="723"/>
      <point x="1802" y="575"/>
      <point x="1900" y="575" type="curve" smooth="yes"/>
      <point x="2026" y="575"/>
      <point x="2208" y="959"/>
    </contour>
    <contour>
      <point x="2130" y="860" type="curve" smooth="yes"/>
      <point x="2424" y="2130" type="line"/>
      <point x="3284" y="2130" type="line"/>
      <point x="2977" y="811" type="line" smooth="yes"/>
      <point x="2931" y="611"/>
      <point x="2875" y="403"/>
      <point x="3055" y="403" type="curve" smooth="yes"/>
      <point x="3428" y="403"/>
      <point x="3875" y="904"/>
      <point x="3875" y="1642" type="curve" smooth="yes"/>
      <point x="3875" y="2374"/>
      <point x="3414" y="3199"/>
      <point x="2395" y="3199" type="curve" smooth="yes"/>
      <point x="1226" y="3199"/>
      <point x="263" y="2127"/>
      <point x="263" y="864" type="curve" smooth="yes"/>
      <point x="263" y="-405"/>
      <point x="986" y="-839"/>
      <point x="1716" y="-839" type="curve" smooth="yes"/>
      <point x="2376" y="-839"/>
      <point x="2844" y="-639"/>
      <point x="3190" y="-240" type="curve"/>
      <point x="3216" y="-262" type="line"/>
      <point x="2872" y="-664"/>
      <point x="2384" y="-876"/>
      <point x="1716" y="-876" type="curve" smooth="yes"/>
      <point x="966" y="-876"/>
      <point x="226" y="-424"/>
      <point x="226" y="864" type="curve" smooth="yes"/>
      <point x="226" y="2146"/>
      <point x="1196" y="3236"/>
      <point x="2396" y="3236" type="curve" smooth="yes"/>
      <point x="3432" y="3236"/>
      <point x="3912" y="2392"/>
      <point x="3912" y="1642" type="curve" smooth="yes"/>
      <point x="3912" y="946"/>
      <point x="3532" y="278"/>
      <point x="2708" y="278" type="curve" smooth="yes"/>
      <point x="2098" y="278"/>
      <point x="2072" y="606"/>
    </contour>
  </outline>
</glyph>
<glyph name="A" format="2">
  <advance width="6640"/>
  <unicode hex="0041"/>
  <outline>
    <contour>
      <point x="120" y="72" type="line"/>
      <point x="1880" y="72" type="line"/>
      <point x="1880" y="0" type="line"/>
      <point x="120" y="0" type="line"/>
    </contour>
    <contour>
      <point x="3400" y="72" type="line"/>
      <point x="6520" y="72" type="line"/>
      <point x="6520" y="0" type="line"/>
      <point x="3400" y="0" type="line"/>
    </contour>
    <contour>
      <point x="1544" y="2000" type="line"/>
      <point x="4120" y="2000" type="line"/>
      <point x="4120" y="1920" type="line"/>
      <point x="1544" y="1920" type="line"/>
    </contour>
    <contour>
      <point x="2496" y="4504" type="line"/>
      <point x="912" y="0" type="line"/>
      <point x="824" y="0" type="line"/>
      <point x="2992" y="6120" type="line"/>
      <point x="3840" y="6120" type="line"/>
      <point x="5960" y="0" type="line"/>
      <point x="3960" y="0" type="line"/>
    </contour>
  </outline>
</glyph>
<glyph name="B" format="2">
  <advance width="3132"/>
  <unicode hex="0042"/>
  <outline>
    <contour>
      <point x="1659" y="1566" type="curve" smooth="yes"/>
      <point x="1126" y="1566" type="line"/>
      <point x="1126" y="1597" type="line"/>
      <point x="1495" y="1597" type="line" smooth="yes"/>
      <point x="1765" y="1597"/>
      <point x="1946" y="1786"/>
      <point x="1946" y="2273" type="curve" smooth="yes"/>
      <point x="1946" y="2760"/>
      <point x="1765" y="3035"/>
      <point x="1495" y="3035" type="curve" smooth="yes"/>
      <point x="61" y="3035" type="line"/>
      <point x="61" y="3072" type="line"/>
      <point x="1659" y="3072" type="line" smooth="yes"/>
      <point x="2400" y="3072"/>
      <point x="2847" y="2846"/>
      <point x="2847" y="2314" type="curve" smooth="yes"/>
      <point x="2847" y="1822"/>
      <point x="2441" y="1566"/>
    </contour>
    <contour>
      <point x="430" y="3072" type="line"/>
      <point x="1311" y="3072" type="line"/>
      <point x="1311" y="0" type="line"/>
      <point x="430" y="0" type="line"/>
    </contour>
    <contour>
      <point x="1741" y="0" type="curve" smooth="yes"/>
      <point x="61" y="0" type="line"/>
      <point x="61" y="37" type="line"/>
      <point x="1536" y="37" type="line" smooth="yes"/>
      <point x="1847" y="37"/>
      <point x="2028" y="373"/>
      <point x="2028" y="860" type="curve" smooth="yes"/>
      <point x="2028" y="1347"/>
      <point x="1847" y="1557"/>
      <point x="1536" y="1557" type="curve" smooth="yes"/>
      <point x="1126" y="1557" type="line"/>
      <point x="1126" y="1588" type="line"/>
      <point x="1741" y="1588" type="line" smooth="yes"/>
      <point x="2441" y="1588"/>
      <point x="2970" y="1392"/>
      <point x="2970" y="778" type="curve" smooth="yes"/>
      <point x="2970" y="205"/>
      <point x="2523" y="0"/>
    </contour>
  </outline>
</glyph>
<glyph name="C" format="2">
  <advance width="735"/>
  <unicode hex="0043"/>
  <outline>
    <contour>
      <point x="678" y="750" type="line"/>
      <point x="685" y="750" type="line"/>
      <point x="685" y="515" type="line"/>
      <point x="662" y="555"/>
      <point x="590" y="667"/>
      <point x="555" y="702" type="curve"/>
    </contour>
    <contour>
      <point x="685" y="515" type="curve"/>
      <point x="675" y="515" type="line"/>
      <point x="603" y="650"/>
      <point x="539" y="745"/>
      <point x="430" y="745" type="curve" smooth="yes"/>
      <point x="306" y="745"/>
      <point x="275" y="557"/>
      <point x="275" y="375" type="curve" smooth="yes"/>
      <point x="275" y="193"/>
      <point x="306" y="5"/>
      <point x="430" y="5" type="curve" smooth="yes"/>
      <point x="564" y="5"/>
      <point x="619" y="107"/>
      <point x="685" y="235" type="curve"/>
      <point x="695" y="235" type="line"/>
      <point x="635" y="92"/>
      <point x="563" y="-10"/>
      <point x="420" y="-10" type="curve" smooth="yes"/>
      <point x="177" y="-10"/>
      <point x="40" y="152"/>
      <point x="40" y="375" type="curve" smooth="yes"/>
      <point x="40" y="598"/>
      <point x="177" y="760"/>
      <point x="420" y="760" type="curve" smooth="yes"/>
      <point x="548" y="760"/>
      <point x="615" y="658"/>
    </contour>
    <contour>
      <point x="695" y="235" type="curve"/>
      <point x="695" y="0" type="line"/>
      <point x="688" y="0" type="line"/>
      <point x="572" y="52" type="line"/>
      <point x="609" y="88"/>
      <point x="677" y="198"/>
    </contour>
  </outline>
</glyph>
<glyph name="E" format="2">
  <advance width="2744"/>
  <unicode hex="0045"/>
  <outline>
    <contour>
      <point x="2585" y="922" type="curve"/>
      <point x="2621" y="922" type="line"/>
      <point x="2621" y="0" type="line"/>
      <point x="61" y="0" type="line"/>
      <point x="61" y="37" type="line"/>
      <point x="1516" y="37" type="line" smooth="yes"/>
      <point x="2077" y="37"/>
      <point x="2462" y="402"/>
    </contour>
    <contour>
      <point x="430" y="3072" type="line"/>
      <point x="1311" y="3072" type="line"/>
      <point x="1311" y="0" type="line"/>
      <point x="430" y="0" type="line"/>
    </contour>
    <contour>
      <point x="61" y="3072" type="line"/>
      <point x="2580" y="3072" type="line"/>
      <point x="2580" y="2232" type="line"/>
      <point x="2543" y="2232" type="line"/>
      <point x="2420" y="2670"/>
      <point x="2035" y="3035"/>
      <point x="1556" y="3035" type="curve" smooth="yes"/>
      <point x="61" y="3035" type="line"/>
    </contour>
    <contour>
      <point x="1969" y="1016" type="line"/>
      <point x="1846" y="1290"/>
      <point x="1585" y="1571"/>
      <point x="1352" y="1571" type="curve" smooth="yes"/>
      <point x="1106" y="1571" type="line"/>
      <point x="1106" y="1609" type="line"/>
      <point x="1352" y="1609" type="line" smooth="yes"/>
      <point x="1585" y="1609"/>
      <point x="1846" y="1868"/>
      <point x="1969" y="2142" type="curve"/>
      <point x="2007" y="2142" type="line"/>
      <point x="2007" y="1016" type="line"/>
    </contour>
  </outline>
</glyph>
<glyph name="F" format="2">
  <advance width="640"/>
  <unicode hex="0046"/>
  <outline>
    <contour>
      <point x="15" y="750" type="line"/>
      <point x="610" y="750" type="line"/>
      <point x="610" y="545" type="line"/>
      <point x="601" y="545" type="line"/>
      <point x="571" y="652"/>
      <point x="497" y="741"/>
      <point x="390" y="741" type="curve" smooth="yes"/>
      <point x="15" y="741" type="line"/>
    </contour>
    <contour>
      <point x="15" y="9" type="line"/>
      <point x="420" y="9" type="line"/>
      <point x="420" y="0" type="line"/>
      <point x="15" y="0" type="line"/>
    </contour>
    <contour>
      <point x="105" y="750" type="line"/>
      <point x="320" y="750" type="line"/>
      <point x="320" y="0" type="line"/>
      <point x="105" y="0" type="line"/>
    </contour>
    <contour>
      <point x="471" y="228" type="line"/>
      <point x="441" y="295"/>
      <point x="392" y="368"/>
      <point x="325" y="368" type="curve" smooth="yes"/>
      <point x="260" y="368" type="line"/>
      <point x="260" y="378" type="line"/>
      <point x="325" y="378" type="line" smooth="yes"/>
      <point x="392" y="378"/>
      <point x="441" y="446"/>
      <point x="471" y="513" type="curve"/>
      <point x="480" y="513" type="line"/>
      <point x="480" y="228" type="line"/>
    </contour>
  </outline>
</glyph>
<glyph name="G" format="2">
  <advance width="3276"/>
  <unicode hex="0047"/>
  <outline>
    <contour>
      <point x="2970" y="2109" type="line"/>
      <point x="2817" y="2502"/>
      <point x="2547" y="2751"/>
      <point x="2350" y="2910" type="curve"/>
      <point x="2941" y="3072" type="line"/>
      <point x="2970" y="3072" type="line"/>
    </contour>
    <contour>
      <point x="1720" y="1187" type="line"/>
      <point x="3236" y="1187" type="line"/>
      <point x="3236" y="1149" type="line"/>
      <point x="1720" y="1149" type="line"/>
    </contour>
    <contour>
      <point x="2150" y="1159" type="line"/>
      <point x="3072" y="1159" type="line"/>
      <point x="3072" y="594" type="line"/>
      <point x="2662" y="295"/>
      <point x="2409" y="-41"/>
      <point x="1741" y="-41" type="curve" smooth="yes"/>
      <point x="766" y="-41"/>
      <point x="164" y="541"/>
      <point x="164" y="1536" type="curve" smooth="yes"/>
      <point x="164" y="2531"/>
      <point x="971" y="3113"/>
      <point x="1802" y="3113" type="curve" smooth="yes"/>
      <point x="2326" y="3113"/>
      <point x="2845" y="2613"/>
      <point x="2970" y="2109" type="curve"/>
      <point x="2933" y="2109" type="line"/>
      <point x="2769" y="2486"/>
      <point x="2387" y="3049"/>
      <point x="1872" y="3049" type="curve" smooth="yes"/>
      <point x="1364" y="3049"/>
      <point x="1126" y="2281"/>
      <point x="1126" y="1536" type="curve" smooth="yes"/>
      <point x="1126" y="791"/>
      <point x="1254" y="14"/>
      <point x="1741" y="14" type="curve" smooth="yes"/>
      <point x="1921" y="14"/>
      <point x="2068" y="258"/>
      <point x="2150" y="512" type="curve"/>
    </contour>
  </outline>
</glyph>
<glyph name="H" format="2">
  <advance width="6800"/>
  <unicode hex="0048"/>
  <outline>
    <contour>
      <point x="2400" y="3000" type="line"/>
      <point x="4400" y="3000" type="line"/>
      <point x="4400" y="2920" type="line"/>
      <point x="2400" y="2920" type="line"/>
    </contour>
    <contour>
      <point x="3600" y="72" type="line"/>
      <point x="6680" y="72" type="line"/>
      <point x="6680" y="0" type="line"/>
      <point x="3600" y="0" type="line"/>
    </contour>
    <contour>
      <point x="120" y="72" type="line"/>
      <point x="3200" y="72" type="line"/>
      <point x="3200" y="0" type="line"/>
      <point x="120" y="0" type="line"/>
    </contour>
    <contour>
      <point x="3600" y="6000" type="line"/>
      <point x="6680" y="6000" type="line"/>
      <point x="6680" y="5928" type="line"/>
      <point x="3600" y="5928" type="line"/>
    </contour>
    <contour>
      <point x="120" y="6000" type="line"/>
      <point x="3200" y="6000" type="line"/>
      <point x="3200" y="5928" type="line"/>
      <point x="120" y="5928" type="line"/>
    </contour>
    <contour>
      <point x="4240" y="6000" type="line"/>
      <point x="5960" y="6000" type="line"/>
      <point x="5960" y="0" type="line"/>
      <point x="4240" y="0" type="line"/>
    </contour>
    <contour>
      <point x="840" y="6000" type="line"/>
      <point x="2560" y="6000" type="line"/>
      <point x="2560" y="0" type="line"/>
      <point x="840" y="0" type="line"/>
    </contour>
  </outline>
</glyph>
<glyph name="K" format="2">
  <advance width="3502"/>
  <unicode hex="004B"/>
  <outline>
    <contour>
      <point x="61" y="37" type="line"/>
      <point x="1638" y="37" type="line"/>
      <point x="1638" y="0" type="line"/>
      <point x="61" y="0" type="line"/>
    </contour>
    <contour>
      <point x="61" y="3072" type="line"/>
      <point x="1720" y="3072" type="line"/>
      <point x="1720" y="3035" type="line"/>
      <point x="61" y="3035" type="line"/>
    </contour>
    <contour>
      <point x="430" y="3072" type="line"/>
      <point x="1311" y="3072" type="line"/>
      <point x="1311" y="0" type="line"/>
      <point x="430" y="0" type="line"/>
    </contour>
    <contour>
      <point x="762" y="889" type="line"/>
      <point x="705" y="889" type="line"/>
      <point x="2810" y="3064" type="line"/>
      <point x="2868" y="3064" type="line"/>
    </contour>
    <contour>
      <point x="1802" y="37" type="line"/>
      <point x="3482" y="37" type="line"/>
      <point x="3482" y="0" type="line"/>
      <point x="1802" y="0" type="line"/>
    </contour>
    <contour>
      <point x="3297" y="3035" type="line"/>
      <point x="2314" y="3035" type="line"/>
      <point x="2314" y="3072" type="line"/>
      <point x="3297" y="3072" type="line"/>
    </contour>
    <contour>
      <point x="3162" y="0" type="line"/>
      <point x="2179" y="0" type="line"/>
      <point x="1322" y="1497" type="line"/>
      <point x="1914" y="2121" type="line"/>
    </contour>
  </outline>
</glyph>
<glyph name="L" format="2">
  <advance width="5280"/>
  <unicode hex="004C"/>
  <outline>
    <contour>
      <point x="840" y="6000" type="line"/>
      <point x="2560" y="6000" type="line"/>
      <point x="2560" y="0" type="line"/>
      <point x="840" y="0" type="line"/>
    </contour>
    <contour>
      <point x="120" y="6000" type="line"/>
      <point x="760" y="6000"/>
      <point x="2640" y="6000"/>
      <point x="3280" y="6000" type="curve"/>
      <point x="3280" y="5928" type="line"/>
      <point x="120" y="5928" type="line"/>
    </contour>
    <contour>
      <point x="5120" y="0" type="line"/>
      <point x="120" y="0" type="line"/>
      <point x="120" y="72" type="line"/>
      <point x="2960" y="72" type="line" smooth="yes"/>
      <point x="4056" y="72"/>
      <point x="4808" y="784"/>
      <point x="5048" y="1800" type="curve"/>
      <point x="5120" y="1800" type="line"/>
    </contour>
  </outline>
</glyph>
<glyph name="M" format="2">
  <advance width="7520"/>
  <unicode hex="004D"/>
  <outline>
    <contour>
      <point x="7400" y="6000" type="line"/>
      <point x="7400" y="5928" type="line"/>
      <point x="6840" y="5928" type="line"/>
      <point x="6840" y="0" type="line"/>
      <point x="5120" y="0" type="line"/>
      <point x="5120" y="6000" type="line"/>
    </contour>
    <contour>
      <point x="160" y="72" type="line"/>
      <point x="1408" y="72" type="line"/>
      <point x="1408" y="0" type="line"/>
      <point x="160" y="0" type="line"/>
    </contour>
    <contour>
      <point x="4480" y="72" type="line"/>
      <point x="7400" y="72" type="line"/>
      <point x="7400" y="0" type="line"/>
      <point x="4480" y="0" type="line"/>
    </contour>
    <contour>
      <point x="3824" y="2384" type="line"/>
      <point x="5080" y="6000" type="line"/>
      <point x="5160" y="6000" type="line"/>
      <point x="3056" y="-80" type="line"/>
      <point x="2968" y="-80" type="line"/>
      <point x="744" y="6000" type="line"/>
      <point x="2472" y="6000" type="line"/>
    </contour>
    <contour>
      <point x="728" y="5928" type="line"/>
      <point x="120" y="5928" type="line"/>
      <point x="120" y="6000" type="line"/>
      <point x="808" y="6000" type="line"/>
      <point x="808" y="0" type="line"/>
      <point x="728" y="0" type="line"/>
    </contour>
  </outline>
</glyph>
<glyph name="N" format="2">
  <advance width="6176"/>
  <unicode hex="004E"/>
  <outline>
    <contour>
      <point x="5144" y="6000" type="line"/>
      <point x="5224" y="6000" type="line"/>
      <point x="5224" y="-80" type="line"/>
      <point x="5104" y="-80" type="line"/>
      <point x="920" y="6000" type="line"/>
      <point x="2960" y="6000" type="line"/>
      <point x="5144" y="2856" type="line"/>
    </contour>
    <contour>
      <point x="4264" y="6000" type="line"/>
      <point x="6064" y="6000" type="line"/>
      <point x="6064" y="5928" type="line"/>
      <point x="4264" y="5928" type="line"/>
    </contour>
    <contour>
      <point x="120" y="72" type="line"/>
      <point x="1904" y="72" type="line"/>
      <point x="1904" y="0" type="line"/>
      <point x="120" y="0" type="line"/>
    </contour>
    <contour>
      <point x="928" y="5928" type="line"/>
      <point x="120" y="5928" type="line"/>
      <point x="120" y="6000" type="line"/>
      <point x="1008" y="6000" type="line"/>
      <point x="1008" y="0" type="line"/>
      <point x="928" y="0" type="line"/>
    </contour>
  </outline>
</glyph>
<glyph name="O" format="2">
  <advance width="6400"/>
  <unicode hex="004F"/>
  <outline>
    <contour>
      <point x="3200" y="-80" type="curve" smooth="yes"/>
      <point x="1416" y="-80"/>
      <point x="320" y="1216"/>
      <point x="320" y="3000" type="curve" smooth="yes"/>
      <point x="320" y="4784"/>
      <point x="1496" y="6080"/>
      <point x="3200" y="6080" type="curve" smooth="yes"/>
      <point x="4904" y="6080"/>
      <point x="6080" y="4784"/>
      <point x="6080" y="3000" type="curve" smooth="yes"/>
      <point x="6080" y="1216"/>
      <point x="4984" y="-80"/>
    </contour>
    <contour>
      <point x="3200" y="6016" type="curve" smooth="yes"/>
      <point x="2448" y="6016"/>
      <point x="2200" y="4856"/>
      <point x="2200" y="3000" type="curve" smooth="yes"/>
      <point x="2200" y="1144"/>
      <point x="2368" y="-16"/>
      <point x="3200" y="-16" type="curve" smooth="yes"/>
      <point x="4032" y="-16"/>
      <point x="4200" y="1144"/>
      <point x="4200" y="3000" type="curve" smooth="yes"/>
      <point x="4200" y="4856"/>
      <point x="3952" y="6016"/>
    </contour>
  </outline>
</glyph>
<glyph name="P" format="2">
  <advance width="735"/>
  <unicode hex="0050"/>
  <outline>
    <contour>
      <point x="105" y="750" type="line"/>
      <point x="320" y="750" type="line"/>
      <point x="320" y="0" type="line"/>
      <point x="105" y="0" type="line"/>
    </contour>
    <contour>
      <point x="15" y="9" type="line"/>
      <point x="410" y="9" type="line"/>
      <point x="410" y="0" type="line"/>
      <point x="15" y="0" type="line"/>
    </contour>
    <contour>
      <point x="410" y="335" type="curve" smooth="yes"/>
      <point x="250" y="335" type="line"/>
      <point x="250" y="345" type="line"/>
      <point x="370" y="345" type="line" smooth="yes"/>
      <point x="446" y="345"/>
      <point x="470" y="451"/>
      <point x="470" y="540" type="curve" smooth="yes"/>
      <point x="470" y="629"/>
      <point x="446" y="741"/>
      <point x="370" y="741" type="curve" smooth="yes"/>
      <point x="15" y="741" type="line"/>
      <point x="15" y="750" type="line"/>
      <point x="410" y="750" type="line" smooth="yes"/>
      <point x="611" y="750"/>
      <point x="700" y="670"/>
      <point x="700" y="540" type="curve" smooth="yes"/>
      <point x="700" y="410"/>
      <point x="611" y="335"/>
    </contour>
  </outline>
</glyph>
<glyph name="Q" format="2">
  <advance width="800"/>
  <unicode hex="0051"/>
  <outline>
    <contour>
      <point x="400" y="-10" type="curve" smooth="yes"/>
      <point x="177" y="-10"/>
      <point x="40" y="152"/>
      <point x="40" y="375" type="curve" smooth="yes"/>
      <point x="40" y="598"/>
      <point x="187" y="760"/>
      <point x="400" y="760" type="curve" smooth="yes"/>
      <point x="613" y="760"/>
      <point x="760" y="598"/>
      <point x="760" y="375" type="curve" smooth="yes"/>
      <point x="760" y="152"/>
      <point x="623" y="-10"/>
    </contour>
    <contour>
      <point x="400" y="752" type="curve" smooth="yes"/>
      <point x="306" y="752"/>
      <point x="275" y="607"/>
      <point x="275" y="375" type="curve" smooth="yes"/>
      <point x="275" y="143"/>
      <point x="296" y="-2"/>
      <point x="400" y="-2" type="curve" smooth="yes"/>
      <point x="504" y="-2"/>
      <point x="525" y="143"/>
      <point x="525" y="375" type="curve" smooth="yes"/>
      <point x="525" y="607"/>
      <point x="494" y="752"/>
    </contour>
    <contour>
      <point x="630" y="-241" type="curve"/>
      <point x="630" y="-250" type="line"/>
      <point x="347" y="-250"/>
      <point x="280" y="-213"/>
      <point x="280" y="10" type="curve"/>
      <point x="360" y="-10"/>
      <point x="439" y="-10"/>
      <point x="515" y="10" type="curve"/>
      <point x="515" y="-172"/>
      <point x="516" y="-241"/>
    </contour>
  </outline>
</glyph>
<glyph name="R" format="2">
  <advance width="790"/>
  <unicode hex="0052"/>
  <outline>
    <contour>
      <point x="385" y="383" type="curve" smooth="yes"/>
      <point x="195" y="383" type="line"/>
      <point x="195" y="390" type="line"/>
      <point x="335" y="390" type="line" smooth="yes"/>
      <point x="431" y="390"/>
      <point x="475" y="436"/>
      <point x="475" y="565" type="curve" smooth="yes"/>
      <point x="475" y="694"/>
      <point x="431" y="741"/>
      <point x="335" y="741" type="curve" smooth="yes"/>
      <point x="15" y="741" type="line"/>
      <point x="15" y="750" type="line"/>
      <point x="385" y="750" type="line" smooth="yes"/>
      <point x="566" y="750"/>
      <point x="695" y="695"/>
      <point x="695" y="565" type="curve" smooth="yes"/>
      <point x="695" y="435"/>
      <point x="576" y="383"/>
    </contour>
    <contour>
      <point x="15" y="9" type="line"/>
      <point x="410" y="9" type="line"/>
      <point x="410" y="0" type="line"/>
      <point x="15" y="0" type="line"/>
    </contour>
    <contour>
      <point x="105" y="750" type="line"/>
      <point x="320" y="750" type="line"/>
      <point x="320" y="0" type="line"/>
      <point x="105" y="0" type="line"/>
    </contour>
    <contour>
      <point x="780" y="15" type="line"/>
      <point x="764" y="6"/>
      <point x="706" y="-10"/>
      <point x="630" y="-10" type="curve" smooth="yes"/>
      <point x="317" y="-10"/>
      <point x="586" y="380"/>
      <point x="340" y="380" type="curve" smooth="yes"/>
      <point x="195" y="380" type="line"/>
      <point x="195" y="385" type="line"/>
      <point x="480" y="385" type="line" smooth="yes"/>
      <point x="793" y="385"/>
      <point x="599" y="10"/>
      <point x="722" y="10" type="curve" smooth="yes"/>
      <point x="743" y="10"/>
      <point x="763" y="17"/>
      <point x="777" y="23" type="curve"/>
    </contour>
  </outline>
</glyph>
<glyph name="S" format="2">
  <advance width="5080"/>
  <unicode hex="0053"/>
  <outline>
    <contour>
      <point x="4440" y="4120" type="curve"/>
      <point x="4360" y="4120" type="line"/>
      <point x="3880" y="5176"/>
      <point x="3272" y="5984"/>
      <point x="2328" y="5984" type="curve" smooth="yes"/>
      <point x="1800" y="5984"/>
      <point x="1520" y="5632"/>
      <point x="1520" y="5160" type="curve" smooth="yes"/>
      <point x="1520" y="3920"/>
      <point x="4760" y="4240"/>
      <point x="4760" y="1840" type="curve" smooth="yes"/>
      <point x="4760" y="640"/>
      <point x="3728" y="-120"/>
      <point x="2600" y="-120" type="curve" smooth="yes"/>
      <point x="1352" y="-120"/>
      <point x="752" y="1080"/>
      <point x="320" y="2040" type="curve"/>
      <point x="400" y="2040" type="line"/>
      <point x="816" y="1144"/>
      <point x="1424" y="-32"/>
      <point x="2568" y="-32" type="curve" smooth="yes"/>
      <point x="3256" y="-32"/>
      <point x="3640" y="448"/>
      <point x="3640" y="1000" type="curve" smooth="yes"/>
      <point x="3640" y="2400"/>
      <point x="400" y="1800"/>
      <point x="400" y="4360" type="curve" smooth="yes"/>
      <point x="400" y="5480"/>
      <point x="1328" y="6080"/>
      <point x="2296" y="6080" type="curve" smooth="yes"/>
      <point x="3320" y="6080"/>
      <point x="3960" y="5248"/>
    </contour>
    <contour>
      <point x="4384" y="6080" type="line"/>
      <point x="4440" y="6080" type="line"/>
      <point x="4440" y="4120" type="line"/>
      <point x="4248" y="4552"/>
      <point x="3680" y="5424"/>
      <point x="3400" y="5680" type="curve"/>
    </contour>
    <contour>
      <point x="376" y="-80" type="line"/>
      <point x="320" y="-80" type="line"/>
      <point x="320" y="2040" type="line"/>
      <point x="552" y="1536"/>
      <point x="1168" y="576"/>
      <point x="1416" y="352" type="curve"/>
    </contour>
  </outline>
</glyph>
<glyph name="T" format="2">
  <advance width="725"/>
  <unicode hex="0054"/>
  <outline>
    <contour>
      <point x="145" y="9" type="line"/>
      <point x="580" y="9" type="line"/>
      <point x="580" y="0" type="line"/>
      <point x="145" y="0" type="line"/>
    </contour>
    <contour>
      <point x="255" y="745" type="line"/>
      <point x="470" y="745" type="line"/>
      <point x="470" y="0" type="line"/>
      <point x="255" y="0" type="line"/>
    </contour>
    <contour>
      <point x="500" y="741" type="curve" smooth="yes"/>
      <point x="225" y="741" type="line" smooth="yes"/>
      <point x="128" y="741"/>
      <point x="54" y="622"/>
      <point x="24" y="495" type="curve"/>
      <point x="15" y="495" type="line"/>
      <point x="15" y="750" type="line"/>
      <point x="710" y="750" type="line"/>
      <point x="710" y="495" type="line"/>
      <point x="701" y="495" type="line"/>
      <point x="671" y="622"/>
      <point x="597" y="741"/>
    </contour>
  </outline>
</glyph>
<glyph name="U" format="2">
  <advance width="6000"/>
  <unicode hex="0055"/>
  <outline>
    <contour>
      <point x="4320" y="6000" type="line"/>
      <point x="5880" y="6000" type="line"/>
      <point x="5880" y="5928" type="line"/>
      <point x="4320" y="5928" type="line"/>
    </contour>
    <contour>
      <point x="120" y="6000" type="line"/>
      <point x="3360" y="6000" type="line"/>
      <point x="3360" y="5928" type="line"/>
      <point x="120" y="5928" type="line"/>
    </contour>
    <contour>
      <point x="5040" y="6000" type="line"/>
      <point x="5120" y="6000" type="line"/>
      <point x="5120" y="1840" type="line" smooth="yes"/>
      <point x="5120" y="520"/>
      <point x="4504" y="-120"/>
      <point x="3160" y="-120" type="curve" smooth="yes"/>
      <point x="1536" y="-120"/>
      <point x="840" y="456"/>
      <point x="840" y="1840" type="curve" smooth="yes"/>
      <point x="840" y="6000" type="line"/>
      <point x="2560" y="6000" type="line"/>
      <point x="2560" y="1920" type="line" smooth="yes"/>
      <point x="2560" y="864"/>
      <point x="2704" y="48"/>
      <point x="3616" y="48" type="curve" smooth="yes"/>
      <point x="4384" y="48"/>
      <point x="5040" y="560"/>
      <point x="5040" y="1840" type="curve" smooth="yes"/>
    </contour>
  </outline>
</glyph>
<glyph name="W" format="2">
  <advance width="5038"/>
  <unicode hex="0057"/>
  <outline>
    <contour>
      <point x="2757" y="1946" type="line"/>
      <point x="1991" y="-41" type="line"/>
      <point x="1618" y="-41" type="line"/>
      <point x="324" y="3072" type="line"/>
      <point x="1356" y="3072" type="line"/>
      <point x="2277" y="831" type="line"/>
      <point x="2740" y="2023" type="line"/>
    </contour>
    <contour>
      <point x="3154" y="1868" type="line"/>
      <point x="3138" y="1942" type="line"/>
      <point x="3600" y="3072" type="line"/>
      <point x="3641" y="3072" type="line"/>
    </contour>
    <contour>
      <point x="4997" y="3035" type="line"/>
      <point x="4178" y="3035" type="line"/>
      <point x="4178" y="3072" type="line"/>
      <point x="4997" y="3072" type="line"/>
    </contour>
    <contour>
      <point x="2789" y="3072" type="line"/>
      <point x="3711" y="831" type="line"/>
      <point x="4588" y="3072" type="line"/>
      <point x="4628" y="3072" type="line"/>
      <point x="3424" y="-41" type="line"/>
      <point x="3178" y="-41" type="line"/>
      <point x="1880" y="3072" type="line"/>
    </contour>
    <contour>
      <point x="4014" y="3035" type="line"/>
      <point x="41" y="3035" type="line"/>
      <point x="41" y="3072" type="line"/>
      <point x="4014" y="3072" type="line"/>
    </contour>
  </outline>
</glyph>
<glyph name="X" format="2">
  <advance width="6800"/>
  <unicode hex="0058"/>
  <outline>
    <contour>
      <point x="3456" y="3016" type="line"/>
      <point x="3352" y="3016" type="line"/>
      <point x="5408" y="5984" type="line"/>
      <point x="5496" y="5984" type="line"/>
    </contour>
    <contour>
      <point x="992" y="0" type="line"/>
      <point x="888" y="0" type="line"/>
      <point x="3256" y="3336" type="line"/>
      <point x="3360" y="3336" type="line"/>
    </contour>
    <contour>
      <point x="3520" y="72" type="line"/>
      <point x="6720" y="72" type="line"/>
      <point x="6720" y="0" type="line"/>
      <point x="3520" y="0" type="line"/>
    </contour>
    <contour>
      <point x="80" y="72" type="line"/>
      <point x="2000" y="72" type="line"/>
      <point x="2000" y="0" type="line"/>
      <point x="80" y="0" type="line"/>
    </contour>
    <contour>
      <point x="3560" y="5928" type="line"/>
      <point x="360" y="5928" type="line"/>
      <point x="360" y="6000" type="line"/>
      <point x="3560" y="6000" type="line"/>
    </contour>
    <contour>
      <point x="6280" y="5928" type="line"/>
      <point x="4520" y="5928" type="line"/>
      <point x="4520" y="6000" type="line"/>
      <point x="6280" y="6000" type="line"/>
    </contour>
    <contour>
      <point x="6208" y="0" type="line"/>
      <point x="4288" y="0" type="line"/>
      <point x="840" y="6000" type="line"/>
      <point x="2728" y="6000" type="line"/>
    </contour>
  </outline>
</glyph>
<glyph name="Y" format="2">
  <advance width="6120"/>
  <unicode hex="0059"/>
  <outline>
    <contour>
      <point x="6040" y="5928" type="line"/>
      <point x="4360" y="5928" type="line"/>
      <point x="4360" y="6000" type="line"/>
      <point x="6040" y="6000" type="line"/>
    </contour>
    <contour>
      <point x="3360" y="5928" type="line"/>
      <point x="80" y="5928" type="line"/>
      <point x="80" y="6000" type="line"/>
      <point x="3360" y="6000" type="line"/>
    </contour>
    <contour>
      <point x="1560" y="72" type="line"/>
      <point x="4800" y="72" type="line"/>
      <point x="4800" y="0" type="line"/>
      <point x="1560" y="0" type="line"/>
    </contour>
    <contour>
      <point x="3968" y="3192" type="line"/>
      <point x="5296" y="5984" type="line"/>
      <point x="5392" y="5984" type="line"/>
      <point x="4000" y="3064" type="line"/>
      <point x="4000" y="0" type="line"/>
      <point x="2280" y="0" type="line"/>
      <point x="2280" y="2880" type="line"/>
      <point x="560" y="6000" type="line"/>
      <point x="2560" y="6000" type="line"/>
    </contour>
  </outline>
</glyph>
<glyph name="Z" format="2">
  <advance width="675"/>
  <unicode hex="005A"/>
  <outline>
    <contour>
      <point x="30" y="750" type="line"/>
      <point x="630" y="750" type="line"/>
      <point x="630" y="741" type="line"/>
      <point x="255" y="9" type="line"/>
      <point x="400" y="9" type="line" smooth="yes"/>
      <point x="537" y="9"/>
      <point x="591" y="93"/>
      <point x="631" y="220" type="curve"/>
      <point x="640" y="220" type="line"/>
      <point x="640" y="0" type="line"/>
      <point x="10" y="0" type="line"/>
      <point x="10" y="9" type="line"/>
      <point x="385" y="741" type="line"/>
      <point x="270" y="741" type="line" smooth="yes"/>
      <point x="133" y="741"/>
      <point x="79" y="657"/>
      <point x="39" y="550" type="curve"/>
      <point x="30" y="550" type="line"/>
    </contour>
  </outline>
</glyph>
<glyph name="bracketleft" format="2">
  <advance width="1576"/>
  <unicode hex="005B"/>
  <outline>
    <contour>
      <point x="1454" y="-614" type="line"/>
      <point x="225" y="-614" type="line"/>
      <point x="225" y="-578" type="line"/>
      <point x="1454" y="-578" type="line"/>
    </contour>
    <contour>
      <point x="1454" y="3158" type="line"/>
      <point x="225" y="3158" type="line"/>
      <point x="225" y="3195" type="line"/>
      <point x="1454" y="3195" type="line"/>
    </contour>
    <contour>
      <point x="1085" y="3195" type="line"/>
      <point x="1085" y="-614" type="line"/>
      <point x="225" y="-614" type="line"/>
      <point x="225" y="3195" type="line"/>
    </contour>
  </outline>
</glyph>
<glyph name="a" format="2">
  <advance width="5072"/>
  <unicode hex="0061"/>
  <outline>
    <contour>
      <point x="5064" y="504" type="line"/>
      <point x="4880" y="104"/>
      <point x="4384" y="-80"/>
      <point x="3800" y="-80" type="curve" smooth="yes"/>
      <point x="3184" y="-80"/>
      <point x="2664" y="112"/>
      <point x="2664" y="664" type="curve" smooth="yes"/>
      <point x="2664" y="2440" type="line" smooth="yes"/>
      <point x="2664" y="3136"/>
      <point x="2416" y="3656"/>
      <point x="1856" y="3656" type="curve" smooth="yes"/>
      <point x="1528" y="3656"/>
      <point x="1240" y="3536"/>
      <point x="1112" y="3448" type="curve"/>
      <point x="1656" y="3640"/>
      <point x="2224" y="3360"/>
      <point x="2224" y="2864" type="curve" smooth="yes"/>
      <point x="2224" y="2464"/>
      <point x="1792" y="2168"/>
      <point x="1352" y="2168" type="curve" smooth="yes"/>
      <point x="872" y="2168"/>
      <point x="536" y="2480"/>
      <point x="536" y="2848" type="curve" smooth="yes"/>
      <point x="536" y="3384"/>
      <point x="1232" y="3744"/>
      <point x="2120" y="3744" type="curve" smooth="yes"/>
      <point x="3560" y="3744"/>
      <point x="4184" y="3248"/>
      <point x="4184" y="2440" type="curve" smooth="yes"/>
      <point x="4184" y="432" type="line" smooth="yes"/>
      <point x="4184" y="272"/>
      <point x="4288" y="152"/>
      <point x="4480" y="152" type="curve" smooth="yes"/>
      <point x="4608" y="152"/>
      <point x="4840" y="216"/>
      <point x="5008" y="528" type="curve"/>
    </contour>
    <contour>
      <point x="2008" y="2048" type="curve" smooth="yes"/>
      <point x="3080" y="2048" type="line"/>
      <point x="3080" y="1968" type="line"/>
      <point x="2568" y="1968" type="line" smooth="yes"/>
      <point x="2200" y="1968"/>
      <point x="1872" y="1560"/>
      <point x="1872" y="1064" type="curve" smooth="yes"/>
      <point x="1872" y="672"/>
      <point x="1992" y="480"/>
      <point x="2192" y="480" type="curve" smooth="yes"/>
      <point x="2352" y="480"/>
      <point x="2664" y="640"/>
      <point x="2664" y="1448" type="curve"/>
      <point x="2720" y="1448" type="line"/>
      <point x="2720" y="456"/>
      <point x="2224" y="-80"/>
      <point x="1336" y="-80" type="curve" smooth="yes"/>
      <point x="704" y="-80"/>
      <point x="256" y="312"/>
      <point x="256" y="904" type="curve" smooth="yes"/>
      <point x="256" y="1576"/>
      <point x="872" y="2048"/>
    </contour>
  </outline>
</glyph>
<glyph name="b" format="2">
  <advance width="5328"/>
  <unicode hex="0062"/>
  <outline>
    <contour>
      <point x="2120" y="1840" type="curve" smooth="yes"/>
      <point x="2120" y="3056"/>
      <point x="2568" y="3752"/>
      <point x="3424" y="3752" type="curve" smooth="yes"/>
      <point x="4296" y="3752"/>
      <point x="5120" y="3040"/>
      <point x="5120" y="1840" type="curve" smooth="yes"/>
      <point x="5120" y="640"/>
      <point x="4296" y="-80"/>
      <point x="3424" y="-80" type="curve" smooth="yes"/>
      <point x="2576" y="-80"/>
      <point x="2120" y="624"/>
    </contour>
    <contour>
      <point x="2176" y="1840" type="curve" smooth="yes"/>
      <point x="2176" y="696"/>
      <point x="2664" y="104"/>
      <point x="3032" y="104" type="curve" smooth="yes"/>
      <point x="3304" y="104"/>
      <point x="3400" y="608"/>
      <point x="3400" y="1840" type="curve" smooth="yes"/>
      <point x="3400" y="3072"/>
      <point x="3304" y="3568"/>
      <point x="3032" y="3568" type="curve" smooth="yes"/>
      <point x="2664" y="3568"/>
      <point x="2176" y="2984"/>
    </contour>
    <contour>
      <point x="656" y="5928" type="line"/>
      <point x="96" y="5928" type="line"/>
      <point x="96" y="6000" type="line"/>
      <point x="2176" y="6000" type="line"/>
      <point x="2176" y="0" type="line"/>
      <point x="96" y="0" type="line"/>
      <point x="96" y="72" type="line"/>
      <point x="656" y="72" type="line"/>
    </contour>
  </outline>
</glyph>
<glyph name="c" format="2">
  <advance width="2224"/>
  <unicode hex="0063"/>
  <outline>
    <contour>
      <point x="1864" y="1659" type="curve"/>
      <point x="1786" y="1753"/>
      <point x="1556" y="1876"/>
      <point x="1331" y="1876" type="curve" smooth="yes"/>
      <point x="1048" y="1876"/>
      <point x="1032" y="1327"/>
      <point x="1032" y="942" type="curve" smooth="yes"/>
      <point x="1032" y="475"/>
      <point x="1122" y="41"/>
      <point x="1380" y="41" type="curve" smooth="yes"/>
      <point x="1683" y="41"/>
      <point x="1926" y="254"/>
      <point x="2028" y="586" type="curve"/>
      <point x="2068" y="586" type="line"/>
      <point x="1962" y="230"/>
      <point x="1704" y="-41"/>
      <point x="1208" y="-41" type="curve" smooth="yes"/>
      <point x="549" y="-41"/>
      <point x="111" y="246"/>
      <point x="111" y="942" type="curve" smooth="yes"/>
      <point x="111" y="1556"/>
      <point x="492" y="1925"/>
      <point x="1233" y="1925" type="curve" smooth="yes"/>
      <point x="1692" y="1925"/>
      <point x="2097" y="1671"/>
      <point x="2097" y="1335" type="curve" smooth="yes"/>
      <point x="2097" y="1085"/>
      <point x="1925" y="938"/>
      <point x="1679" y="938" type="curve" smooth="yes"/>
      <point x="1454" y="938"/>
      <point x="1241" y="1045"/>
      <point x="1241" y="1352" type="curve" smooth="yes"/>
      <point x="1241" y="1618"/>
      <point x="1462" y="1741"/>
      <point x="1622" y="1741" type="curve" smooth="yes"/>
      <point x="1749" y="1741"/>
      <point x="1815" y="1708"/>
    </contour>
  </outline>
</glyph>
<glyph name="d" format="2">
  <advance width="5328"/>
  <unicode hex="0064"/>
  <outline>
    <contour>
      <point x="3216" y="1840" type="curve" smooth="yes"/>
      <point x="3216" y="624"/>
      <point x="2768" y="-80"/>
      <point x="1912" y="-80" type="curve" smooth="yes"/>
      <point x="1040" y="-80"/>
      <point x="216" y="640"/>
      <point x="216" y="1840" type="curve" smooth="yes"/>
      <point x="216" y="3040"/>
      <point x="1040" y="3752"/>
      <point x="1912" y="3752" type="curve" smooth="yes"/>
      <point x="2760" y="3752"/>
      <point x="3216" y="3056"/>
    </contour>
    <contour>
      <point x="3160" y="1840" type="curve" smooth="yes"/>
      <point x="3160" y="3040"/>
      <point x="2648" y="3568"/>
      <point x="2304" y="3568" type="curve" smooth="yes"/>
      <point x="2032" y="3568"/>
      <point x="1936" y="3104"/>
      <point x="1936" y="1840" type="curve" smooth="yes"/>
      <point x="1936" y="576"/>
      <point x="2064" y="136"/>
      <point x="2336" y="136" type="curve" smooth="yes"/>
      <point x="2680" y="136"/>
      <point x="3160" y="640"/>
    </contour>
    <contour>
      <point x="5240" y="72" type="line"/>
      <point x="5240" y="0" type="line"/>
      <point x="3160" y="0" type="line"/>
      <point x="3160" y="5928" type="line"/>
      <point x="2600" y="5928" type="line"/>
      <point x="2600" y="6000" type="line"/>
      <point x="4680" y="6000" type="line"/>
      <point x="4680" y="72" type="line"/>
    </contour>
  </outline>
</glyph>
<glyph name="e" format="2">
  <advance width="4328"/>
  <unicode hex="0065"/>
  <outline>
    <contour>
      <point x="752" y="2048" type="line"/>
      <point x="752" y="2128" type="line"/>
      <point x="2584" y="2128" type="line"/>
      <point x="2576" y="2880"/>
      <point x="2568" y="3688"/>
      <point x="2256" y="3688" type="curve" smooth="yes"/>
      <point x="1944" y="3688"/>
      <point x="1856" y="2912"/>
      <point x="1856" y="2000" type="curve" smooth="yes"/>
      <point x="1856" y="848"/>
      <point x="1984" y="64"/>
      <point x="2616" y="64" type="curve" smooth="yes"/>
      <point x="3288" y="64"/>
      <point x="3848" y="504"/>
      <point x="4048" y="1144" type="curve"/>
      <point x="4120" y="1144" type="line"/>
      <point x="3912" y="448"/>
      <point x="3328" y="-80"/>
      <point x="2280" y="-80" type="curve" smooth="yes"/>
      <point x="1072" y="-80"/>
      <point x="216" y="560"/>
      <point x="216" y="1840" type="curve" smooth="yes"/>
      <point x="216" y="3120"/>
      <point x="1048" y="3760"/>
      <point x="2256" y="3760" type="curve" smooth="yes"/>
      <point x="3448" y="3760"/>
      <point x="4112" y="2920"/>
      <point x="4112" y="2048" type="curve"/>
    </contour>
  </outline>
</glyph>
<glyph name="f" format="2">
  <advance width="1735"/>
  <unicode hex="0066"/>
  <outline>
    <contour>
      <point x="29" y="37" type="line"/>
      <point x="1626" y="37" type="line"/>
      <point x="1626" y="0" type="line"/>
      <point x="29" y="0" type="line"/>
    </contour>
    <contour>
      <point x="29" y="1884" type="line"/>
      <point x="1708" y="1884" type="line"/>
      <point x="1708" y="1847" type="line"/>
      <point x="29" y="1847" type="line"/>
    </contour>
    <contour>
      <point x="2062" y="2850" type="curve"/>
      <point x="2003" y="2925"/>
      <point x="1864" y="3075"/>
      <point x="1589" y="3075" type="curve" smooth="yes"/>
      <point x="1261" y="3075"/>
      <point x="1135" y="2732"/>
      <point x="1135" y="2212" type="curve" smooth="yes"/>
      <point x="1135" y="0" type="line"/>
      <point x="398" y="0" type="line"/>
      <point x="398" y="2097" type="line" smooth="yes"/>
      <point x="398" y="2715"/>
      <point x="918" y="3113"/>
      <point x="1573" y="3113" type="curve" smooth="yes"/>
      <point x="1946" y="3113"/>
      <point x="2200" y="2859"/>
      <point x="2200" y="2585" type="curve" smooth="yes"/>
      <point x="2200" y="2335"/>
      <point x="2049" y="2167"/>
      <point x="1803" y="2167" type="curve" smooth="yes"/>
      <point x="1578" y="2167"/>
      <point x="1368" y="2306"/>
      <point x="1368" y="2552" type="curve" smooth="yes"/>
      <point x="1368" y="2785"/>
      <point x="1552" y="2957"/>
      <point x="1761" y="2957" type="curve" smooth="yes"/>
      <point x="1901" y="2957"/>
      <point x="2005" y="2901"/>
    </contour>
  </outline>
</glyph>
<glyph name="g" format="2">
  <advance width="2747"/>
  <unicode hex="0067"/>
  <outline>
    <contour>
      <point x="181" y="254" type="curve" smooth="yes"/>
      <point x="181" y="590"/>
      <point x="739" y="688"/>
      <point x="1128" y="688" type="curve"/>
      <point x="1124" y="669" type="line"/>
      <point x="948" y="669"/>
      <point x="623" y="630"/>
      <point x="623" y="509" type="curve" smooth="yes"/>
      <point x="623" y="419"/>
      <point x="836" y="406"/>
      <point x="1061" y="406" type="curve" smooth="yes"/>
      <point x="1204" y="406"/>
      <point x="1360" y="410"/>
      <point x="1475" y="410" type="curve" smooth="yes"/>
      <point x="1782" y="410"/>
      <point x="2200" y="221"/>
      <point x="2200" y="-336" type="curve" smooth="yes"/>
      <point x="2200" y="-832"/>
      <point x="1790" y="-1065"/>
      <point x="1135" y="-1065" type="curve" smooth="yes"/>
      <point x="631" y="-1065"/>
      <point x="49" y="-942"/>
      <point x="49" y="-577" type="curve" smooth="yes"/>
      <point x="49" y="-228"/>
      <point x="541" y="-190"/>
      <point x="725" y="-190" type="curve" smooth="yes"/>
      <point x="766" y="-190" type="line"/>
      <point x="664" y="-243"/>
      <point x="643" y="-418"/>
      <point x="643" y="-467" type="curve" smooth="yes"/>
      <point x="643" y="-827"/>
      <point x="868" y="-1017"/>
      <point x="1179" y="-1017" type="curve" smooth="yes"/>
      <point x="1506" y="-1017"/>
      <point x="1986" y="-956"/>
      <point x="1986" y="-590" type="curve" smooth="yes"/>
      <point x="1986" y="-369"/>
      <point x="1729" y="-242"/>
      <point x="1463" y="-242" type="curve" smooth="yes"/>
      <point x="1336" y="-242"/>
      <point x="1086" y="-242"/>
      <point x="996" y="-242" type="curve" smooth="yes"/>
      <point x="627" y="-242"/>
      <point x="181" y="-123"/>
    </contour>
    <contour>
      <point x="951" y="1290" type="curve" smooth="yes"/>
      <point x="951" y="905"/>
      <point x="971" y="693"/>
      <point x="1090" y="693" type="curve" smooth="yes"/>
      <point x="1168" y="693"/>
      <point x="1229" y="905"/>
      <point x="1229" y="1290" type="curve" smooth="yes"/>
      <point x="1229" y="1675"/>
      <point x="1168" y="1887"/>
      <point x="1090" y="1887" type="curve" smooth="yes"/>
      <point x="1012" y="1887"/>
      <point x="951" y="1675"/>
    </contour>
    <contour>
      <point x="152" y="1290" type="curve" smooth="yes"/>
      <point x="152" y="1741"/>
      <point x="635" y="1925"/>
      <point x="1090" y="1925" type="curve" smooth="yes"/>
      <point x="1545" y="1925"/>
      <point x="2028" y="1741"/>
      <point x="2028" y="1290" type="curve" smooth="yes"/>
      <point x="2028" y="839"/>
      <point x="1545" y="655"/>
      <point x="1090" y="655" type="curve" smooth="yes"/>
      <point x="635" y="655"/>
      <point x="152" y="839"/>
    </contour>
    <contour>
      <point x="2632" y="1678" type="curve"/>
      <point x="2574" y="1773"/>
      <point x="2461" y="1867"/>
      <point x="2253" y="1867" type="curve" smooth="yes"/>
      <point x="2024" y="1867"/>
      <point x="1794" y="1758"/>
      <point x="1712" y="1402" type="curve"/>
      <point x="1680" y="1421" type="line"/>
      <point x="1762" y="1794"/>
      <point x="2007" y="1905"/>
      <point x="2253" y="1905" type="curve" smooth="yes"/>
      <point x="2585" y="1905"/>
      <point x="2720" y="1667"/>
      <point x="2720" y="1511" type="curve" smooth="yes"/>
      <point x="2720" y="1245"/>
      <point x="2552" y="1163"/>
      <point x="2409" y="1163" type="curve" smooth="yes"/>
      <point x="2266" y="1163"/>
      <point x="2102" y="1253"/>
      <point x="2102" y="1470" type="curve" smooth="yes"/>
      <point x="2102" y="1626"/>
      <point x="2216" y="1765"/>
      <point x="2392" y="1765" type="curve" smooth="yes"/>
      <point x="2519" y="1765"/>
      <point x="2593" y="1719"/>
    </contour>
  </outline>
</glyph>
<glyph name="h" format="2">
  <advance width="658"/>
  <unicode hex="0068"/>
  <outline>
    <contour>
      <point x="387" y="320" type="line" smooth="yes"/>
      <point x="387" y="404"/>
      <point x="379" y="415"/>
      <point x="351" y="415" type="curve" smooth="yes"/>
      <point x="305" y="415"/>
      <point x="272" y="319"/>
      <point x="272" y="223" type="curve"/>
      <point x="265" y="223" type="line"/>
      <point x="265" y="325"/>
      <point x="292" y="470"/>
      <point x="435" y="470" type="curve" smooth="yes"/>
      <point x="542" y="470"/>
      <point x="577" y="406"/>
      <point x="577" y="319" type="curve" smooth="yes"/>
      <point x="577" y="0" type="line"/>
      <point x="387" y="0" type="line"/>
    </contour>
    <contour>
      <point x="347" y="9" type="line"/>
      <point x="647" y="9" type="line"/>
      <point x="647" y="0" type="line"/>
      <point x="347" y="0" type="line"/>
    </contour>
    <contour>
      <point x="12" y="9" type="line"/>
      <point x="312" y="9" type="line"/>
      <point x="312" y="0" type="line"/>
      <point x="12" y="0" type="line"/>
    </contour>
    <contour>
      <point x="82" y="741" type="line"/>
      <point x="12" y="741" type="line"/>
      <point x="12" y="750" type="line"/>
      <point x="272" y="750" type="line"/>
      <point x="272" y="0" type="line"/>
      <point x="82" y="0" type="line"/>
    </contour>
  </outline>
</glyph>
<glyph name="i" format="2">
  <advance width="2792"/>
  <unicode hex="0069"/>
  <outline>
    <contour>
      <point x="136" y="72" type="line"/>
      <point x="2776" y="72" type="line"/>
      <point x="2776" y="0" type="line"/>
      <point x="136" y="0" type="line"/>
    </contour>
    <contour>
      <point x="496" y="5200" type="curve" smooth="yes"/>
      <point x="496" y="5704"/>
      <point x="872" y="6080"/>
      <point x="1376" y="6080" type="curve" smooth="yes"/>
      <point x="1880" y="6080"/>
      <point x="2256" y="5704"/>
      <point x="2256" y="5200" type="curve" smooth="yes"/>
      <point x="2256" y="4696"/>
      <point x="1880" y="4320"/>
      <point x="1376" y="4320" type="curve" smooth="yes"/>
      <point x="872" y="4320"/>
      <point x="496" y="4696"/>
    </contour>
    <contour>
      <point x="696" y="3608" type="line"/>
      <point x="136" y="3608" type="line"/>
      <point x="136" y="3680" type="line"/>
      <point x="2216" y="3680" type="line"/>
      <point x="2216" y="0" type="line"/>
      <point x="696" y="0" type="line"/>
    </contour>
  </outline>
</glyph>
<glyph name="j" format="2">
  <advance width="2880"/>
  <unicode hex="006A"/>
  <outline>
    <contour>
      <point x="632" y="5200" type="curve" smooth="yes"/>
      <point x="632" y="5704"/>
      <point x="1008" y="6080"/>
      <point x="1512" y="6080" type="curve" smooth="yes"/>
      <point x="2016" y="6080"/>
      <point x="2392" y="5704"/>
      <point x="2392" y="5200" type="curve" smooth="yes"/>
      <point x="2392" y="4696"/>
      <point x="2016" y="4320"/>
      <point x="1512" y="4320" type="curve" smooth="yes"/>
      <point x="1008" y="4320"/>
      <point x="632" y="4696"/>
    </contour>
    <contour>
      <point x="2336" y="3680" type="line"/>
      <point x="2336" y="-96" type="line" smooth="yes"/>
      <point x="2336" y="-1144"/>
      <point x="1320" y="-2080"/>
      <point x="120" y="-2080" type="curve" smooth="yes"/>
      <point x="-688" y="-2080"/>
      <point x="-1344" y="-1656"/>
      <point x="-1344" y="-1056" type="curve" smooth="yes"/>
      <point x="-1344" y="-576"/>
      <point x="-944" y="-232"/>
      <point x="-488" y="-232" type="curve" smooth="yes"/>
      <point x="-48" y="-232"/>
      <point x="360" y="-504"/>
      <point x="360" y="-984" type="curve" smooth="yes"/>
      <point x="360" y="-1424"/>
      <point x="32" y="-1752"/>
      <point x="-520" y="-1752" type="curve" smooth="yes"/>
      <point x="-840" y="-1752"/>
      <point x="-1016" y="-1568"/>
      <point x="-1048" y="-1376" type="curve"/>
      <point x="-992" y="-1680"/>
      <point x="-568" y="-1984"/>
      <point x="-24" y="-1984" type="curve" smooth="yes"/>
      <point x="936" y="-1984"/>
      <point x="792" y="-840"/>
      <point x="792" y="176" type="curve" smooth="yes"/>
      <point x="816" y="3608" type="line"/>
      <point x="96" y="3608" type="line"/>
      <point x="96" y="3680" type="line"/>
    </contour>
  </outline>
</glyph>
<glyph name="k" format="2">
  <advance width="689"/>
  <unicode hex="006B"/>
  <outline>
    <contour>
      <point x="650" y="0" type="line"/>
      <point x="417" y="0" type="line"/>
      <point x="244" y="271" type="line"/>
      <point x="536" y="460" type="line"/>
      <point x="551" y="460" type="line"/>
      <point x="396" y="358" type="line"/>
    </contour>
    <contour>
      <point x="361" y="9" type="line"/>
      <point x="688" y="9" type="line"/>
      <point x="688" y="0" type="line"/>
      <point x="361" y="0" type="line"/>
    </contour>
    <contour>
      <point x="624" y="451" type="line"/>
      <point x="401" y="451" type="line"/>
      <point x="401" y="460" type="line"/>
      <point x="624" y="460" type="line"/>
    </contour>
    <contour>
      <point x="12" y="9" type="line"/>
      <point x="332" y="9" type="line"/>
      <point x="332" y="0" type="line"/>
      <point x="12" y="0" type="line"/>
    </contour>
    <contour>
      <point x="102" y="741" type="line"/>
      <point x="12" y="741" type="line"/>
      <point x="12" y="750" type="line"/>
      <point x="292" y="750" type="line"/>
      <point x="292" y="0" type="line"/>
      <point x="102" y="0" type="line"/>
    </contour>
  </outline>
</glyph>
<glyph name="l" format="2">
  <advance width="393"/>
  <unicode hex="006C"/>
  <outline>
    <contour>
      <point x="12" y="9" type="line"/>
      <point x="382" y="9" type="line"/>
      <point x="382" y="0" type="line"/>
      <point x="12" y="0" type="line"/>
    </contour>
    <contour>
      <point x="102" y="741" type="line"/>
      <point x="12" y="741" type="line"/>
      <point x="12" y="750" type="line"/>
      <point x="292" y="750" type="line"/>
      <point x="292" y="0" type="line"/>
      <point x="102" y="0" type="line"/>
    </contour>
  </outline>
</glyph>
<glyph name="m" format="2">
  <advance width="3783"/>
  <unicode hex="006D"/>
  <outline>
    <contour>
      <point x="2282" y="1307" type="curve" smooth="yes"/>
      <point x="2282" y="0" type="line"/>
      <point x="1504" y="0" type="line"/>
      <point x="1504" y="1311" type="line" smooth="yes"/>
      <point x="1504" y="1655"/>
      <point x="1462" y="1717"/>
      <point x="1385" y="1717" type="curve" smooth="yes"/>
      <point x="1240" y="1717"/>
      <point x="1114" y="1342"/>
      <point x="1114" y="913" type="curve"/>
      <point x="1085" y="913" type="line"/>
      <point x="1085" y="1333"/>
      <point x="1155" y="1925"/>
      <point x="1741" y="1925" type="curve" smooth="yes"/>
      <point x="2138" y="1925"/>
      <point x="2282" y="1663"/>
    </contour>
    <contour>
      <point x="49" y="37" type="line"/>
      <point x="1258" y="37" type="line"/>
      <point x="1258" y="0" type="line"/>
      <point x="49" y="0" type="line"/>
    </contour>
    <contour>
      <point x="1360" y="37" type="line"/>
      <point x="2425" y="37" type="line"/>
      <point x="2425" y="0" type="line"/>
      <point x="1360" y="0" type="line"/>
    </contour>
    <contour>
      <point x="2528" y="37" type="line"/>
      <point x="3736" y="37" type="line"/>
      <point x="3736" y="0" type="line"/>
      <point x="2528" y="0" type="line"/>
    </contour>
    <contour>
      <point x="336" y="1847" type="line"/>
      <point x="49" y="1847" type="line"/>
      <point x="49" y="1884" type="line"/>
      <point x="1114" y="1884" type="line"/>
      <point x="1114" y="0" type="line"/>
      <point x="336" y="0" type="line"/>
    </contour>
    <contour>
      <point x="3449" y="1307" type="curve" smooth="yes"/>
      <point x="3449" y="0" type="line"/>
      <point x="2671" y="0" type="line"/>
      <point x="2671" y="1311" type="line" smooth="yes"/>
      <point x="2671" y="1655"/>
      <point x="2632" y="1717"/>
      <point x="2553" y="1717" type="curve" smooth="yes"/>
      <point x="2408" y="1717"/>
      <point x="2282" y="1342"/>
      <point x="2282" y="913" type="curve"/>
      <point x="2256" y="913" type="line"/>
      <point x="2256" y="1333"/>
      <point x="2312" y="1925"/>
      <point x="2908" y="1925" type="curve" smooth="yes"/>
      <point x="3305" y="1925"/>
      <point x="3449" y="1663"/>
    </contour>
  </outline>
</glyph>
<glyph name="n" format="2">
  <advance width="2695"/>
  <unicode hex="006E"/>
  <outline>
    <contour>
      <point x="1585" y="1311" type="line" smooth="yes"/>
      <point x="1585" y="1655"/>
      <point x="1553" y="1700"/>
      <point x="1438" y="1700" type="curve" smooth="yes"/>
      <point x="1250" y="1700"/>
      <point x="1114" y="1306"/>
      <point x="1114" y="913" type="curve"/>
      <point x="1085" y="913" type="line"/>
      <point x="1085" y="1331"/>
      <point x="1196" y="1925"/>
      <point x="1782" y="1925" type="curve" smooth="yes"/>
      <point x="2220" y="1925"/>
      <point x="2363" y="1663"/>
      <point x="2363" y="1307" type="curve" smooth="yes"/>
      <point x="2363" y="0" type="line"/>
      <point x="1585" y="0" type="line"/>
    </contour>
    <contour>
      <point x="1421" y="37" type="line"/>
      <point x="2650" y="37" type="line"/>
      <point x="2650" y="0" type="line"/>
      <point x="1421" y="0" type="line"/>
    </contour>
    <contour>
      <point x="49" y="37" type="line"/>
      <point x="1278" y="37" type="line"/>
      <point x="1278" y="0" type="line"/>
      <point x="49" y="0" type="line"/>
    </contour>
    <contour>
      <point x="336" y="1847" type="line"/>
      <point x="49" y="1847" type="line"/>
      <point x="49" y="1884" type="line"/>
      <point x="1114" y="1884" type="line"/>
      <point x="1114" y="0" type="line"/>
      <point x="336" y="0" type="line"/>
    </contour>
  </outline>
</glyph>
<glyph name="o" format="2">
  <advance width="2338"/>
  <unicode hex="006F"/>
  <outline>
    <contour>
      <point x="909" y="942" type="curve" smooth="yes"/>
      <point x="909" y="352"/>
      <point x="1011" y="-4"/>
      <point x="1171" y="-4" type="curve" smooth="yes"/>
      <point x="1331" y="-4"/>
      <point x="1434" y="352"/>
      <point x="1434" y="942" type="curve" smooth="yes"/>
      <point x="1434" y="1532"/>
      <point x="1331" y="1888"/>
      <point x="1171" y="1888" type="curve" smooth="yes"/>
      <point x="1011" y="1888"/>
      <point x="909" y="1532"/>
    </contour>
    <contour>
      <point x="111" y="942" type="curve" smooth="yes"/>
      <point x="111" y="1474"/>
      <point x="512" y="1925"/>
      <point x="1171" y="1925" type="curve" smooth="yes"/>
      <point x="1830" y="1925"/>
      <point x="2232" y="1474"/>
      <point x="2232" y="942" type="curve" smooth="yes"/>
      <point x="2232" y="410"/>
      <point x="1830" y="-41"/>
      <point x="1171" y="-41" type="curve" smooth="yes"/>
      <point x="512" y="-41"/>
      <point x="111" y="410"/>
    </contour>
  </outline>
</glyph>
<glyph name="p" format="2">
  <advance width="666"/>
  <unicode hex="0070"/>
  <outline>
    <contour>
      <point x="265" y="230" type="curve" smooth="yes"/>
      <point x="265" y="382"/>
      <point x="321" y="469"/>
      <point x="428" y="469" type="curve" smooth="yes"/>
      <point x="537" y="469"/>
      <point x="640" y="380"/>
      <point x="640" y="230" type="curve" smooth="yes"/>
      <point x="640" y="80"/>
      <point x="537" y="-10"/>
      <point x="428" y="-10" type="curve" smooth="yes"/>
      <point x="322" y="-10"/>
      <point x="265" y="78"/>
    </contour>
    <contour>
      <point x="272" y="230" type="curve" smooth="yes"/>
      <point x="272" y="80"/>
      <point x="337" y="13"/>
      <point x="377" y="13" type="curve" smooth="yes"/>
      <point x="415" y="13"/>
      <point x="425" y="84"/>
      <point x="425" y="230" type="curve" smooth="yes"/>
      <point x="425" y="376"/>
      <point x="417" y="446"/>
      <point x="379" y="446" type="curve" smooth="yes"/>
      <point x="336" y="446"/>
      <point x="272" y="380"/>
    </contour>
    <contour>
      <point x="12" y="-241" type="line"/>
      <point x="342" y="-241" type="line"/>
      <point x="342" y="-250" type="line"/>
      <point x="12" y="-250" type="line"/>
    </contour>
    <contour>
      <point x="82" y="451" type="line"/>
      <point x="12" y="451" type="line"/>
      <point x="12" y="460" type="line"/>
      <point x="272" y="460" type="line"/>
      <point x="272" y="-250" type="line"/>
      <point x="82" y="-250" type="line"/>
    </contour>
  </outline>
</glyph>
<glyph name="q" format="2">
  <advance width="5328"/>
  <unicode hex="0071"/>
  <outline>
    <contour>
      <point x="3216" y="1840" type="curve" smooth="yes"/>
      <point x="3216" y="624"/>
      <point x="2768" y="-80"/>
      <point x="1912" y="-80" type="curve" smooth="yes"/>
      <point x="1040" y="-80"/>
      <point x="216" y="640"/>
      <point x="216" y="1840" type="curve" smooth="yes"/>
      <point x="216" y="3040"/>
      <point x="1040" y="3752"/>
      <point x="1912" y="3752" type="curve" smooth="yes"/>
      <point x="2760" y="3752"/>
      <point x="3216" y="3056"/>
    </contour>
    <contour>
      <point x="3160" y="1840" type="curve" smooth="yes"/>
      <point x="3160" y="3040"/>
      <point x="2648" y="3568"/>
      <point x="2304" y="3568" type="curve" smooth="yes"/>
      <point x="2032" y="3568"/>
      <point x="1936" y="3008"/>
      <point x="1936" y="1840" type="curve" smooth="yes"/>
      <point x="1936" y="672"/>
      <point x="2032" y="136"/>
      <point x="2304" y="136" type="curve" smooth="yes"/>
      <point x="2712" y="136"/>
      <point x="3160" y="640"/>
    </contour>
    <contour>
      <point x="5240" y="-1928" type="line"/>
      <point x="5240" y="-2000" type="line"/>
      <point x="2600" y="-2000" type="line"/>
      <point x="2600" y="-1928" type="line"/>
    </contour>
    <contour>
      <point x="5240" y="3680" type="line"/>
      <point x="5240" y="3608" type="line"/>
      <point x="4680" y="3608" type="line"/>
      <point x="4680" y="-2000" type="line"/>
      <point x="3160" y="-2000" type="line"/>
      <point x="3160" y="3680" type="line"/>
    </contour>
  </outline>
</glyph>
<glyph name="r" format="2">
  <advance width="540"/>
  <unicode hex="0072"/>
  <outline>
    <contour>
      <point x="498" y="399" type="curve"/>
      <point x="485" y="436"/>
      <point x="442" y="460"/>
      <point x="403" y="460" type="curve" smooth="yes"/>
      <point x="284" y="460"/>
      <point x="272" y="327"/>
      <point x="272" y="223" type="curve"/>
      <point x="265" y="223" type="line"/>
      <point x="265" y="345"/>
      <point x="276" y="470"/>
      <point x="407" y="470" type="curve" smooth="yes"/>
      <point x="473" y="470"/>
      <point x="539" y="418"/>
      <point x="539" y="339" type="curve" smooth="yes"/>
      <point x="539" y="280"/>
      <point x="499" y="228"/>
      <point x="431" y="228" type="curve" smooth="yes"/>
      <point x="368" y="228"/>
      <point x="322" y="271"/>
      <point x="322" y="333" type="curve" smooth="yes"/>
      <point x="322" y="423"/>
      <point x="434" y="466"/>
    </contour>
    <contour>
      <point x="12" y="9" type="line"/>
      <point x="342" y="9" type="line"/>
      <point x="342" y="0" type="line"/>
      <point x="12" y="0" type="line"/>
    </contour>
    <contour>
      <point x="82" y="451" type="line"/>
      <point x="12" y="451" type="line"/>
      <point x="12" y="460" type="line"/>
      <point x="272" y="460" type="line"/>
      <point x="272" y="0" type="line"/>
      <point x="82" y="0" type="line"/>
    </contour>
  </outline>
</glyph>
<glyph name="s" format="2">
  <advance width="3704"/>
  <unicode hex="0073"/>
  <outline>
    <contour>
      <point x="3056" y="2880" type="line"/>
      <point x="2968" y="3016"/>
      <point x="2680" y="3344"/>
      <point x="2584" y="3424" type="curve"/>
      <point x="3192" y="3760" type="line"/>
      <point x="3248" y="3760" type="line"/>
      <point x="3248" y="2640" type="line"/>
      <point x="3176" y="2640" type="line"/>
    </contour>
    <contour>
      <point x="3232" y="2640" type="curve"/>
      <point x="3176" y="2640" type="line"/>
      <point x="2856" y="3120"/>
      <point x="2448" y="3672"/>
      <point x="1712" y="3672" type="curve" smooth="yes"/>
      <point x="1336" y="3672"/>
      <point x="1056" y="3504"/>
      <point x="1056" y="3224" type="curve" smooth="yes"/>
      <point x="1056" y="2512"/>
      <point x="3536" y="2800"/>
      <point x="3536" y="1216" type="curve" smooth="yes"/>
      <point x="3536" y="264"/>
      <point x="2704" y="-80"/>
      <point x="2008" y="-80" type="curve" smooth="yes"/>
      <point x="1176" y="-80"/>
      <point x="656" y="416"/>
      <point x="296" y="1280" type="curve"/>
      <point x="352" y="1280" type="line"/>
      <point x="736" y="456"/>
      <point x="1256" y="0"/>
      <point x="1976" y="0" type="curve" smooth="yes"/>
      <point x="2472" y="0"/>
      <point x="2792" y="192"/>
      <point x="2792" y="472" type="curve" smooth="yes"/>
      <point x="2792" y="1160"/>
      <point x="352" y="872"/>
      <point x="352" y="2520" type="curve" smooth="yes"/>
      <point x="352" y="3272"/>
      <point x="952" y="3752"/>
      <point x="1712" y="3752" type="curve" smooth="yes"/>
      <point x="2496" y="3752"/>
      <point x="2912" y="3168"/>
    </contour>
    <contour>
      <point x="336" y="-80" type="line"/>
      <point x="280" y="-80" type="line"/>
      <point x="280" y="1280" type="line"/>
      <point x="352" y="1280" type="line"/>
      <point x="456" y="944" type="line"/>
      <point x="552" y="768"/>
      <point x="856" y="416"/>
      <point x="944" y="336" type="curve"/>
    </contour>
  </outline>
</glyph>
<glyph name="t" format="2">
  <advance width="3208"/>
  <unicode hex="0074"/>
  <outline>
    <contour>
      <point x="16" y="3680" type="line"/>
      <point x="2976" y="3680" type="line"/>
      <point x="2976" y="3608" type="line"/>
      <point x="16" y="3608" type="line"/>
    </contour>
    <contour>
      <point x="3216" y="816" type="line"/>
      <point x="3024" y="304"/>
      <point x="2536" y="-56"/>
      <point x="1728" y="-56" type="curve" smooth="yes"/>
      <point x="832" y="-56"/>
      <point x="600" y="288"/>
      <point x="600" y="968" type="curve" smooth="yes"/>
      <point x="600" y="4480" type="line"/>
      <point x="1080" y="4480"/>
      <point x="1720" y="4520"/>
      <point x="2120" y="4720" type="curve"/>
      <point x="2120" y="808" type="line" smooth="yes"/>
      <point x="2120" y="408"/>
      <point x="2208" y="208"/>
      <point x="2424" y="208" type="curve" smooth="yes"/>
      <point x="2648" y="208"/>
      <point x="2976" y="400"/>
      <point x="3152" y="840" type="curve"/>
    </contour>
  </outline>
</glyph>
<glyph name="u" format="2">
  <advance width="5264"/>
  <unicode hex="0075"/>
  <outline>
    <contour>
      <point x="2176" y="3680" type="line"/>
      <point x="2176" y="1120" type="line" smooth="yes"/>
      <point x="2176" y="448"/>
      <point x="2240" y="360"/>
      <point x="2464" y="360" type="curve" smooth="yes"/>
      <point x="2832" y="360"/>
      <point x="3096" y="1128"/>
      <point x="3096" y="1896" type="curve"/>
      <point x="3152" y="1896" type="line"/>
      <point x="3152" y="1080"/>
      <point x="2936" y="-80"/>
      <point x="1792" y="-80" type="curve" smooth="yes"/>
      <point x="936" y="-80"/>
      <point x="656" y="432"/>
      <point x="656" y="1128" type="curve" smooth="yes"/>
      <point x="656" y="3608" type="line"/>
      <point x="96" y="3608" type="line"/>
      <point x="96" y="3680" type="line"/>
    </contour>
    <contour>
      <point x="4616" y="72" type="line"/>
      <point x="5176" y="72" type="line"/>
      <point x="5176" y="0" type="line"/>
      <point x="3096" y="0" type="line"/>
      <point x="3096" y="3608" type="line"/>
      <point x="2616" y="3608" type="line"/>
      <point x="2616" y="3680" type="line"/>
      <point x="4616" y="3680" type="line"/>
    </contour>
  </outline>
</glyph>
<glyph name="v" format="2">
  <advance width="599"/>
  <unicode hex="0076"/>
  <outline>
    <contour>
      <point x="604" y="451" type="line"/>
      <point x="410" y="451" type="line"/>
      <point x="410" y="460" type="line"/>
      <point x="604" y="460" type="line"/>
    </contour>
    <contour>
      <point x="336" y="451" type="line"/>
      <point x="-5" y="451" type="line"/>
      <point x="-5" y="460" type="line"/>
      <point x="336" y="460" type="line"/>
    </contour>
    <contour>
      <point x="380" y="137" type="line"/>
      <point x="508" y="460" type="line"/>
      <point x="521" y="460" type="line"/>
      <point x="333" y="-10" type="line"/>
      <point x="253" y="-10" type="line"/>
      <point x="60" y="460" type="line"/>
      <point x="270" y="460" type="line"/>
    </contour>
  </outline>
</glyph>
<glyph name="w" format="2">
  <advance width="885"/>
  <unicode hex="0077"/>
  <outline>
    <contour>
      <point x="356" y="451" type="line"/>
      <point x="-5" y="451" type="line"/>
      <point x="-5" y="460" type="line"/>
      <point x="356" y="460" type="line"/>
    </contour>
    <contour>
      <point x="890" y="451" type="line"/>
      <point x="676" y="451" type="line"/>
      <point x="676" y="460" type="line"/>
      <point x="890" y="460" type="line"/>
    </contour>
    <contour>
      <point x="345" y="148" type="line"/>
      <point x="470" y="470" type="line"/>
      <point x="605" y="470" type="line"/>
      <point x="691" y="174" type="line"/>
      <point x="786" y="460" type="line"/>
      <point x="797" y="460" type="line"/>
      <point x="640" y="-10" type="line"/>
      <point x="559" y="-10" type="line"/>
      <point x="429" y="336" type="line"/>
      <point x="294" y="-10" type="line"/>
      <point x="213" y="-10" type="line"/>
      <point x="60" y="460" type="line"/>
      <point x="264" y="460" type="line"/>
    </contour>
  </outline>
</glyph>
<glyph name="y" format="2">
  <advance width="5104"/>
  <unicode hex="0079"/>
  <outline>
    <contour>
      <point x="3248" y="3608" type="line"/>
      <point x="-120" y="3608" type="line"/>
      <point x="-120" y="3680" type="line"/>
      <point x="3248" y="3680" type="line"/>
    </contour>
    <contour>
      <point x="5224" y="3608" type="line"/>
      <point x="3664" y="3608" type="line"/>
      <point x="3664" y="3680" type="line"/>
      <point x="5224" y="3680" type="line"/>
    </contour>
    <contour>
      <point x="3504" y="1456" type="line"/>
      <point x="2616" y="-232" type="line"/>
      <point x="472" y="3680" type="line"/>
      <point x="2312" y="3680" type="line"/>
    </contour>
    <contour>
      <point x="2024" y="-1336" type="curve"/>
      <point x="4576" y="3680" type="line"/>
      <point x="4680" y="3680" type="line"/>
      <point x="2040" y="-1480" type="line" smooth="yes"/>
      <point x="1880" y="-1784"/>
      <point x="1608" y="-2008"/>
      <point x="1224" y="-2008" type="curve" smooth="yes"/>
      <point x="784" y="-2008"/>
      <point x="416" y="-1712"/>
      <point x="416" y="-1248" type="curve" smooth="yes"/>
      <point x="416" y="-824"/>
      <point x="760" y="-432"/>
      <point x="1256" y="-432" type="curve" smooth="yes"/>
      <point x="1704" y="-432"/>
      <point x="2080" y="-848"/>
    </contour>
  </outline>
</glyph>
<glyph name="z" format="2">
  <advance width="4024"/>
  <unicode hex="007A"/>
  <outline>
    <contour>
      <point x="1704" y="3608" type="line" smooth="yes"/>
      <point x="1112" y="3608"/>
      <point x="592" y="3112"/>
      <point x="352" y="2304" type="curve"/>
      <point x="280" y="2304" type="line"/>
      <point x="280" y="3680" type="line"/>
      <point x="3808" y="3680" type="line"/>
      <point x="3808" y="3608" type="line"/>
      <point x="1720" y="72" type="line"/>
      <point x="2328" y="72" type="line" smooth="yes"/>
      <point x="3104" y="72"/>
      <point x="3624" y="480"/>
      <point x="3864" y="1472" type="curve"/>
      <point x="3936" y="1472" type="line"/>
      <point x="3936" y="0" type="line"/>
      <point x="56" y="0" type="line"/>
      <point x="56" y="72" type="line"/>
      <point x="2136" y="3608" type="line"/>
    </contour>
  </outline>
</glyph>
<glyph name="braceleft" format="2">
  <advance width="392"/>
  <unicode hex="007B"/>
  <outline>
    <contour>
      <point x="362" y="780" type="curve"/>
      <point x="362" y="771" type="line"/>
      <point x="300" y="771"/>
      <point x="268" y="710"/>
      <point x="268" y="647" type="curve" smooth="yes"/>
      <point x="268" y="591"/>
      <point x="302" y="541"/>
      <point x="302" y="461" type="curve" smooth="yes"/>
      <point x="302" y="378"/>
      <point x="249" y="333"/>
      <point x="55" y="313" type="curve"/>
      <point x="55" y="320" type="line"/>
      <point x="85" y="330"/>
      <point x="115" y="355"/>
      <point x="115" y="396" type="curve" smooth="yes"/>
      <point x="115" y="459"/>
      <point x="55" y="504"/>
      <point x="55" y="621" type="curve" smooth="yes"/>
      <point x="55" y="730"/>
      <point x="127" y="780"/>
    </contour>
    <contour>
      <point x="362" y="-150" type="line"/>
      <point x="127" y="-150"/>
      <point x="55" y="-99"/>
      <point x="55" y="10" type="curve" smooth="yes"/>
      <point x="55" y="127"/>
      <point x="115" y="172"/>
      <point x="115" y="235" type="curve" smooth="yes"/>
      <point x="115" y="276"/>
      <point x="85" y="300"/>
      <point x="55" y="310" type="curve"/>
      <point x="55" y="318" type="line"/>
      <point x="249" y="298"/>
      <point x="302" y="253"/>
      <point x="302" y="170" type="curve" smooth="yes"/>
      <point x="302" y="90"/>
      <point x="268" y="40"/>
      <point x="268" y="-16" type="curve" smooth="yes"/>
      <point x="268" y="-79"/>
      <point x="300" y="-141"/>
      <point x="362" y="-141" type="curve"/>
    </contour>
  </outline>
</glyph>
<glyph name="asciitilde" format="2">
  <advance width="2818"/>
  <unicode hex="007E"/>
  <outline>
    <contour>
      <point x="808" y="1668" type="curve" smooth="yes"/>
      <point x="594" y="1668"/>
      <point x="447" y="1576"/>
      <point x="447" y="1404" type="curve"/>
      <point x="410" y="1404" type="line"/>
      <point x="410" y="1876"/>
      <point x="614" y="2212"/>
      <point x="1020" y="2212" type="curve" smooth="yes"/>
      <point x="1470" y="2212"/>
      <point x="1543" y="1826"/>
      <point x="1968" y="1826" type="curve" smooth="yes"/>
      <point x="2222" y="1826"/>
      <point x="2371" y="1916"/>
      <point x="2371" y="2088" type="curve"/>
      <point x="2408" y="2088" type="line"/>
      <point x="2408" y="1616"/>
      <point x="2204" y="1282"/>
      <point x="1798" y="1282" type="curve" smooth="yes"/>
      <point x="1278" y="1282"/>
      <point x="1262" y="1668"/>
    </contour>
  </outline>
</glyph>
<glyph name="section" format="2">
  <advance width="506"/>
  <unicode hex="00A7"/>
  <outline>
    <contour>
      <point x="165" y="659" type="curve" smooth="yes"/>
      <point x="165" y="553"/>
      <point x="458" y="543"/>
      <point x="458" y="390" type="curve" smooth="yes"/>
      <point x="458" y="308"/>
      <point x="399" y="291"/>
      <point x="355" y="265" type="curve"/>
      <point x="346" y="265" type="line"/>
      <point x="364" y="280"/>
      <point x="386" y="286"/>
      <point x="386" y="322" type="curve" smooth="yes"/>
      <point x="386" y="413"/>
      <point x="72" y="406"/>
      <point x="72" y="588" type="curve" smooth="yes"/>
      <point x="72" y="692"/>
      <point x="157" y="760"/>
      <point x="272" y="760" type="curve" smooth="yes"/>
      <point x="350" y="760"/>
      <point x="466" y="735"/>
      <point x="466" y="629" type="curve" smooth="yes"/>
      <point x="466" y="578"/>
      <point x="431" y="537"/>
      <point x="376" y="537" type="curve" smooth="yes"/>
      <point x="326" y="537"/>
      <point x="292" y="577"/>
      <point x="292" y="623" type="curve" smooth="yes"/>
      <point x="292" y="665"/>
      <point x="330" y="705"/>
      <point x="379" y="705" type="curve" smooth="yes"/>
      <point x="410" y="705"/>
      <point x="431" y="690"/>
      <point x="441" y="677" type="curve"/>
      <point x="410" y="732"/>
      <point x="336" y="750"/>
      <point x="272" y="750" type="curve" smooth="yes"/>
      <point x="220" y="750"/>
      <point x="165" y="708"/>
    </contour>
    <contour>
      <point x="464" y="162" type="curve" smooth="yes"/>
      <point x="464" y="58"/>
      <point x="379" y="-10"/>
      <point x="244" y="-10" type="curve" smooth="yes"/>
      <point x="156" y="-10"/>
      <point x="30" y="25"/>
      <point x="30" y="121" type="curve" smooth="yes"/>
      <point x="30" y="172"/>
      <point x="65" y="213"/>
      <point x="120" y="213" type="curve" smooth="yes"/>
      <point x="170" y="213"/>
      <point x="204" y="173"/>
      <point x="204" y="127" type="curve" smooth="yes"/>
      <point x="204" y="85"/>
      <point x="168" y="49"/>
      <point x="119" y="49" type="curve" smooth="yes"/>
      <point x="81" y="49"/>
      <point x="61" y="69"/>
      <point x="55" y="82" type="curve"/>
      <point x="79" y="27"/>
      <point x="163" y="0"/>
      <point x="244" y="0" type="curve" smooth="yes"/>
      <point x="327" y="0"/>
      <point x="371" y="52"/>
      <point x="371" y="91" type="curve" smooth="yes"/>
      <point x="371" y="197"/>
      <point x="58" y="192"/>
      <point x="58" y="345" type="curve" smooth="yes"/>
      <point x="58" y="427"/>
      <point x="117" y="464"/>
      <point x="161" y="490" type="curve"/>
      <point x="170" y="490" type="line"/>
      <point x="154" y="478"/>
      <point x="131" y="463"/>
      <point x="131" y="433" type="curve" smooth="yes"/>
      <point x="131" y="342"/>
      <point x="464" y="344"/>
    </contour>
  </outline>
</glyph>
<glyph name="copyright" format="2">
  <advance width="3562"/>
  <unicode hex="00A9"/>
  <outline>
    <contour>
      <point x="204" y="1536" type="curve" smooth="yes"/>
      <point x="204" y="2408"/>
      <point x="910" y="3112"/>
      <point x="1782" y="3112" type="curve" smooth="yes"/>
      <point x="2654" y="3112"/>
      <point x="3358" y="2408"/>
      <point x="3358" y="1536" type="curve" smooth="yes"/>
      <point x="3358" y="664"/>
      <point x="2654" y="-40"/>
      <point x="1782" y="-40" type="curve" smooth="yes"/>
      <point x="910" y="-40"/>
      <point x="204" y="664"/>
    </contour>
    <contour>
      <point x="241" y="1536" type="curve" smooth="yes"/>
      <point x="241" y="687"/>
      <point x="933" y="-3"/>
      <point x="1782" y="-3" type="curve" smooth="yes"/>
      <point x="2631" y="-3"/>
      <point x="3321" y="687"/>
      <point x="3321" y="1536" type="curve" smooth="yes"/>
      <point x="3321" y="2385"/>
      <point x="2631" y="3075"/>
      <point x="1782" y="3075" type="curve" smooth="yes"/>
      <point x="933" y="3075"/>
      <point x="241" y="2385"/>
    </contour>
    <component base="C" xScale="0.6" yScale="0.6" xOffset="778" yOffset="614"/>
  </outline>
</glyph>
<glyph name="guillemotleft" format="2">
  <advance width="6040"/>
  <unicode hex="00AB"/>
  <outline>
    <contour>
      <point x="4408" y="3104" type="line"/>
      <point x="5600" y="1200" type="line"/>
      <point x="5560" y="1160" type="line"/>
      <point x="2440" y="3048" type="line"/>
      <point x="2440" y="3152" type="line"/>
      <point x="5560" y="5040" type="line"/>
      <point x="5600" y="5000" type="line"/>
    </contour>
    <contour>
      <point x="2008" y="3104" type="line"/>
      <point x="3360" y="1200" type="line"/>
      <point x="3320" y="1160" type="line"/>
      <point x="200" y="3048" type="line"/>
      <point x="200" y="3152" type="line"/>
      <point x="3320" y="5040" type="line"/>
      <point x="3360" y="5000" type="line"/>
    </contour>
  </outline>
</glyph>
<glyph name="mu" format="2">
  <advance width="4920"/>
  <unicode hex="00B5"/>
  <outline>
    <contour>
      <point x="2008" y="-984" type="curve" smooth="yes"/>
      <point x="2272" y="-984"/>
      <point x="2480" y="-1216"/>
      <point x="2480" y="-1520" type="curve" smooth="yes"/>
      <point x="2480" y="-1832"/>
      <point x="2312" y="-2080"/>
      <point x="1728" y="-2080" type="curve" smooth="yes"/>
      <point x="1168" y="-2080"/>
      <point x="688" y="-1688"/>
      <point x="688" y="-968" type="curve" smooth="yes"/>
      <point x="688" y="2568" type="line"/>
      <point x="752" y="2568" type="line"/>
      <point x="752" y="-968" type="line" smooth="yes"/>
      <point x="752" y="-1656"/>
      <point x="1200" y="-2048"/>
      <point x="1840" y="-2008" type="curve"/>
      <point x="1840" y="-2008" type="line"/>
      <point x="1640" y="-1896"/>
      <point x="1528" y="-1696"/>
      <point x="1528" y="-1456" type="curve" smooth="yes"/>
      <point x="1528" y="-1192"/>
      <point x="1744" y="-984"/>
    </contour>
    <component base="u"/>
  </outline>
</glyph>
<glyph name="cedilla" format="2">
  <advance width="4400"/>
  <unicode hex="00B8"/>
  <outline>
    <contour>
      <point x="2312" y="-1120" type="curve" smooth="yes"/>
      <point x="2312" y="-696"/>
      <point x="2016" y="-632"/>
      <point x="1736" y="-632" type="curve"/>
      <point x="2456" y="328" type="line"/>
      <point x="2560" y="328" type="line"/>
      <point x="2080" y="-312" type="line"/>
      <point x="2992" y="-336"/>
      <point x="3520" y="-512"/>
      <point x="3520" y="-960" type="curve" smooth="yes"/>
      <point x="3520" y="-1360"/>
      <point x="3136" y="-1760"/>
      <point x="1688" y="-1760" type="curve"/>
      <point x="1688" y="-1688" type="line"/>
      <point x="2160" y="-1688"/>
      <point x="2312" y="-1440"/>
    </contour>
  </outline>
</glyph>
<glyph name="AE" format="2">
  <advance width="8720"/>
  <unicode hex="00C6"/>
  <outline>
    <contour>
      <point x="4200" y="6000" type="line"/>
      <point x="4288" y="6000" type="line"/>
      <point x="880" y="0" type="line"/>
      <point x="776" y="0" type="line"/>
    </contour>
    <contour>
      <point x="120" y="72" type="line"/>
      <point x="1880" y="72" type="line"/>
      <point x="1880" y="0" type="line"/>
      <point x="120" y="0" type="line"/>
    </contour>
    <contour>
      <point x="1960" y="2000" type="line"/>
      <point x="4280" y="2000" type="line"/>
      <point x="4280" y="1920" type="line"/>
      <point x="1960" y="1920" type="line"/>
    </contour>
    <contour>
      <point x="4200" y="6000" type="line"/>
      <point x="5920" y="6000" type="line"/>
      <point x="5920" y="0" type="line"/>
      <point x="4200" y="0" type="line"/>
    </contour>
    <contour>
      <point x="4200" y="6000" type="line"/>
      <point x="8400" y="6000" type="line"/>
      <point x="8400" y="4360" type="line"/>
      <point x="8328" y="4360" type="line"/>
      <point x="8088" y="5216"/>
      <point x="7336" y="5928"/>
      <point x="6480" y="5928" type="curve" smooth="yes"/>
      <point x="4200" y="5928" type="line"/>
    </contour>
    <contour>
      <point x="8480" y="0" type="line"/>
      <point x="3480" y="0" type="line"/>
      <point x="3480" y="72" type="line"/>
      <point x="6400" y="72" type="line" smooth="yes"/>
      <point x="7416" y="72"/>
      <point x="8168" y="784"/>
      <point x="8408" y="1800" type="curve"/>
      <point x="8480" y="1800" type="line"/>
    </contour>
    <contour>
      <point x="7208" y="1984" type="line"/>
      <point x="6968" y="2520"/>
      <point x="6456" y="3064"/>
      <point x="6000" y="3064" type="curve" smooth="yes"/>
      <point x="5520" y="3064" type="line"/>
      <point x="5520" y="3144" type="line"/>
      <point x="6000" y="3144" type="line" smooth="yes"/>
      <point x="6456" y="3144"/>
      <point x="6968" y="3648"/>
      <point x="7208" y="4184" type="curve"/>
      <point x="7280" y="4184" type="line"/>
      <point x="7280" y="1984" type="line"/>
    </contour>
  </outline>
</glyph>
<glyph name="germandbls" format="2">
  <advance width="6888"/>
  <unicode hex="00DF"/>
  <outline>
    <contour>
      <point x="3704" y="3224" type="curve"/>
      <point x="3704" y="3280" type="line"/>
      <point x="4416" y="3280"/>
      <point x="4560" y="4056"/>
      <point x="4560" y="4568" type="curve" smooth="yes"/>
      <point x="4560" y="5144"/>
      <point x="4376" y="6016"/>
      <point x="3624" y="6016" type="curve" smooth="yes"/>
      <point x="2712" y="6016"/>
      <point x="2520" y="4984"/>
      <point x="2520" y="3848" type="curve" smooth="yes"/>
      <point x="2520" y="0" type="line"/>
      <point x="840" y="0" type="line"/>
      <point x="840" y="3928" type="line" smooth="yes"/>
      <point x="840" y="5472"/>
      <point x="2400" y="6080"/>
      <point x="3704" y="6080" type="curve" smooth="yes"/>
      <point x="4848" y="6080"/>
      <point x="6328" y="5632"/>
      <point x="6328" y="4648" type="curve" smooth="yes"/>
      <point x="6328" y="3688"/>
      <point x="5312" y="3224"/>
    </contour>
    <contour>
      <point x="120" y="72" type="line"/>
      <point x="3240" y="72" type="line"/>
      <point x="3240" y="0" type="line"/>
      <point x="120" y="0" type="line"/>
    </contour>
    <contour>
      <point x="6568" y="1520" type="curve" smooth="yes"/>
      <point x="6568" y="400"/>
      <point x="5456" y="-80"/>
      <point x="4328" y="-80" type="curve" smooth="yes"/>
      <point x="3440" y="-80"/>
      <point x="2824" y="512"/>
      <point x="2824" y="1408" type="curve" smooth="yes"/>
      <point x="2824" y="1976"/>
      <point x="3280" y="2248"/>
      <point x="3720" y="2248" type="curve" smooth="yes"/>
      <point x="4120" y="2248"/>
      <point x="4552" y="2008"/>
      <point x="4552" y="1480" type="curve" smooth="yes"/>
      <point x="4552" y="984"/>
      <point x="4088" y="720"/>
      <point x="3696" y="720" type="curve" smooth="yes"/>
      <point x="3416" y="720"/>
      <point x="3048" y="888"/>
      <point x="2968" y="1160" type="curve"/>
      <point x="3016" y="488"/>
      <point x="3600" y="24"/>
      <point x="4128" y="24" type="curve" smooth="yes"/>
      <point x="4680" y="24"/>
      <point x="4800" y="768"/>
      <point x="4800" y="1280" type="curve" smooth="yes"/>
      <point x="4800" y="2032"/>
      <point x="4736" y="3208"/>
      <point x="3704" y="3208" type="curve"/>
      <point x="3704" y="3264" type="line"/>
      <point x="5632" y="3264"/>
      <point x="6568" y="2560"/>
    </contour>
  </outline>
</glyph>
<glyph name="ae" format="2">
  <advance width="903"/>
  <unicode hex="00E6"/>
  <outline>
    <contour>
      <point x="70" y="356" type="curve" smooth="yes"/>
      <point x="70" y="423"/>
      <point x="157" y="468"/>
      <point x="268" y="468" type="curve" smooth="yes"/>
      <point x="398" y="468"/>
      <point x="496" y="406"/>
      <point x="496" y="305" type="curve"/>
      <point x="501" y="181" type="line"/>
      <point x="501" y="57"/>
      <point x="361" y="-10"/>
      <point x="240" y="-10" type="curve" smooth="yes"/>
      <point x="101" y="-10"/>
      <point x="35" y="39"/>
      <point x="35" y="113" type="curve" smooth="yes"/>
      <point x="35" y="197"/>
      <point x="112" y="261"/>
      <point x="254" y="261" type="curve" smooth="yes"/>
      <point x="478" y="261" type="line"/>
      <point x="478" y="252" type="line"/>
      <point x="324" y="252" type="line" smooth="yes"/>
      <point x="278" y="252"/>
      <point x="237" y="195"/>
      <point x="237" y="113" type="curve" smooth="yes"/>
      <point x="237" y="46"/>
      <point x="256" y="3"/>
      <point x="281" y="3" type="curve" smooth="yes"/>
      <point x="308" y="3"/>
      <point x="336" y="50"/>
      <point x="336" y="131" type="curve" smooth="yes"/>
      <point x="336" y="305" type="line" smooth="yes"/>
      <point x="336" y="372"/>
      <point x="315" y="458"/>
      <point x="235" y="458" type="curve" smooth="yes"/>
      <point x="201" y="458"/>
      <point x="155" y="444"/>
      <point x="135" y="425" type="curve"/>
      <point x="204" y="456"/>
      <point x="281" y="420"/>
      <point x="281" y="358" type="curve" smooth="yes"/>
      <point x="281" y="308"/>
      <point x="227" y="271"/>
      <point x="172" y="271" type="curve" smooth="yes"/>
      <point x="112" y="271"/>
      <point x="70" y="310"/>
    </contour>
    <contour>
      <point x="686" y="265" type="line"/>
      <point x="685" y="359"/>
      <point x="684" y="461"/>
      <point x="645" y="461" type="curve" smooth="yes"/>
      <point x="606" y="461"/>
      <point x="595" y="364"/>
      <point x="595" y="250" type="curve" smooth="yes"/>
      <point x="595" y="136"/>
      <point x="603" y="7"/>
      <point x="686" y="7" type="curve" smooth="yes"/>
      <point x="776" y="7"/>
      <point x="844" y="62"/>
      <point x="869" y="143" type="curve"/>
      <point x="878" y="143" type="line"/>
      <point x="852" y="56"/>
      <point x="779" y="-10"/>
      <point x="648" y="-10" type="curve" smooth="yes"/>
      <point x="527" y="-10"/>
      <point x="430" y="70"/>
      <point x="430" y="230" type="curve" smooth="yes"/>
      <point x="430" y="390"/>
      <point x="524" y="470"/>
      <point x="645" y="470" type="curve" smooth="yes"/>
      <point x="794" y="470"/>
      <point x="877" y="365"/>
      <point x="877" y="256" type="curve"/>
      <point x="519" y="256" type="line"/>
      <point x="519" y="265" type="line"/>
    </contour>
  </outline>
</glyph>
<glyph name="eth" format="2">
  <advance width="660"/>
  <unicode hex="00F0"/>
  <outline>
    <contour>
      <point x="150" y="630" type="line"/>
      <point x="620" y="630" type="line"/>
      <point x="620" y="621" type="line"/>
      <point x="150" y="621" type="line"/>
    </contour>
    <contour>
      <point x="610" y="310" type="curve" smooth="yes"/>
      <point x="610" y="100"/>
      <point x="487" y="-10"/>
      <point x="316" y="-10" type="curve" smooth="yes"/>
      <point x="145" y="-10"/>
      <point x="30" y="100"/>
      <point x="30" y="250" type="curve" smooth="yes"/>
      <point x="30" y="420"/>
      <point x="158" y="495"/>
      <point x="279" y="495" type="curve" smooth="yes"/>
      <point x="371" y="495"/>
      <point x="387" y="407"/>
      <point x="387" y="280" type="curve"/>
      <point x="380" y="280" type="line"/>
      <point x="380" y="430"/>
      <point x="348" y="473"/>
      <point x="315" y="473" type="curve" smooth="yes"/>
      <point x="276" y="473"/>
      <point x="260" y="434"/>
      <point x="260" y="250" type="curve" smooth="yes"/>
      <point x="260" y="86"/>
      <point x="264" y="-1"/>
      <point x="313" y="-1" type="curve" smooth="yes"/>
      <point x="362" y="-1"/>
      <point x="380" y="96"/>
      <point x="380" y="280" type="curve"/>
      <point x="383" y="346" type="line"/>
      <point x="383" y="518"/>
      <point x="289" y="754"/>
      <point x="105" y="754" type="curve"/>
      <point x="105" y="760" type="line"/>
      <point x="397" y="760"/>
      <point x="610" y="571"/>
    </contour>
  </outline>
</glyph>
<glyph name="thorn" format="2">
  <advance width="2756"/>
  <unicode hex="00FE"/>
  <outline>
    <contour>
      <point x="1094" y="942" type="curve" smooth="yes"/>
      <point x="1094" y="1564"/>
      <point x="1334" y="1922"/>
      <point x="1766" y="1922" type="curve" smooth="yes"/>
      <point x="2212" y="1922"/>
      <point x="2634" y="1556"/>
      <point x="2634" y="942" type="curve" smooth="yes"/>
      <point x="2634" y="328"/>
      <point x="2212" y="-40"/>
      <point x="1766" y="-40" type="curve" smooth="yes"/>
      <point x="1337" y="-40"/>
      <point x="1094" y="320"/>
    </contour>
    <contour>
      <point x="1126" y="942" type="curve" smooth="yes"/>
      <point x="1126" y="341"/>
      <point x="1377" y="58"/>
      <point x="1572" y="58" type="curve" smooth="yes"/>
      <point x="1712" y="58"/>
      <point x="1754" y="318"/>
      <point x="1754" y="942" type="curve" smooth="yes"/>
      <point x="1754" y="1566"/>
      <point x="1712" y="1822"/>
      <point x="1572" y="1822" type="curve" smooth="yes"/>
      <point x="1377" y="1822"/>
      <point x="1126" y="1541"/>
    </contour>
    <contour>
      <point x="62" y="-987" type="line"/>
      <point x="1414" y="-987" type="line"/>
      <point x="1414" y="-1024" type="line"/>
      <point x="62" y="-1024" type="line"/>
    </contour>
    <contour>
      <point x="348" y="3035" type="line"/>
      <point x="62" y="3035" type="line"/>
      <point x="62" y="3072" type="line"/>
      <point x="1126" y="3072" type="line"/>
      <point x="1126" y="-1024" type="line"/>
      <point x="348" y="-1024" type="line"/>
    </contour>
  </outline>
</glyph>
<glyph name="kgreenlandic" format="2">
  <advance width="723"/>
  <unicode hex="0138"/>
  <outline>
    <contour>
      <point x="653" y="0" type="line"/>
      <point x="420" y="0" type="line"/>
      <point x="247" y="271" type="line"/>
      <point x="539" y="460" type="line"/>
      <point x="553" y="460" type="line"/>
      <point x="399" y="358" type="line"/>
    </contour>
    <contour>
      <point x="364" y="9" type="line"/>
      <point x="691" y="9" type="line"/>
      <point x="691" y="0" type="line"/>
      <point x="364" y="0" type="line"/>
    </contour>
    <contour>
      <point x="627" y="451" type="line"/>
      <point x="404" y="451" type="line"/>
      <point x="404" y="460" type="line"/>
      <point x="627" y="460" type="line"/>
    </contour>
    <contour>
      <point x="15" y="9" type="line"/>
      <point x="335" y="9" type="line"/>
      <point x="335" y="0" type="line"/>
      <point x="15" y="0" type="line"/>
    </contour>
    <contour>
      <point x="105" y="451" type="line"/>
      <point x="15" y="451" type="line"/>
      <point x="15" y="460" type="line"/>
      <point x="295" y="460" type="line"/>
      <point x="295" y="0" type="line"/>
      <point x="105" y="0" type="line"/>
    </contour>
  </outline>
</glyph>
<glyph name="lslash" format="2">
  <advance width="393"/>
  <unicode hex="0142"/>
  <outline>
    <contour>
      <point x="12" y="360" type="line"/>
      <point x="397" y="580" type="line"/>
      <point x="397" y="569" type="line"/>
      <point x="12" y="349" type="line"/>
    </contour>
    <component base="l"/>
  </outline>
</glyph>
<glyph name="OE" format="2">
  <advance width="1035"/>
  <unicode hex="0152"/>
  <anchor x="410" y="741"/>
  <outline>
    <contour>
      <point x="275" y="375" type="curve" smooth="yes"/>
      <point x="275" y="163"/>
      <point x="316" y="9"/>
      <point x="410" y="9" type="curve"/>
      <point x="380" y="0" type="line"/>
      <point x="177" y="0"/>
      <point x="40" y="152"/>
      <point x="40" y="375" type="curve" smooth="yes"/>
      <point x="40" y="598"/>
      <point x="177" y="750"/>
      <point x="380" y="750" type="curve"/>
      <point x="410" y="741" type="line"/>
      <point x="316" y="741"/>
      <point x="275" y="587"/>
    </contour>
    <component base="E" xOffset="365"/>
  </outline>
</glyph>
<glyph name="uni0237" format="2">
  <advance width="2936"/>
  <unicode hex="0237"/>
  <outline>
    <contour>
      <point x="2360" y="3680" type="line"/>
      <point x="2360" y="-96" type="line" smooth="yes"/>
      <point x="2360" y="-1144"/>
      <point x="1344" y="-2080"/>
      <point x="144" y="-2080" type="curve" smooth="yes"/>
      <point x="-664" y="-2080"/>
      <point x="-1320" y="-1664"/>
      <point x="-1320" y="-1056" type="curve" smooth="yes"/>
      <point x="-1320" y="-568"/>
      <point x="-928" y="-232"/>
      <point x="-464" y="-232" type="curve" smooth="yes"/>
      <point x="-24" y="-232"/>
      <point x="384" y="-504"/>
      <point x="384" y="-984" type="curve" smooth="yes"/>
      <point x="384" y="-1440"/>
      <point x="72" y="-1752"/>
      <point x="-496" y="-1752" type="curve" smooth="yes"/>
      <point x="-816" y="-1752"/>
      <point x="-992" y="-1568"/>
      <point x="-1024" y="-1376" type="curve"/>
      <point x="-968" y="-1680"/>
      <point x="-544" y="-1984"/>
      <point x="0" y="-1984" type="curve" smooth="yes"/>
      <point x="960" y="-1984"/>
      <point x="816" y="-840"/>
      <point x="816" y="176" type="curve" smooth="yes"/>
      <point x="840" y="3608" type="line"/>
      <point x="120" y="3608" type="line"/>
      <point x="120" y="3680" type="line"/>
    </contour>
  </outline>
</glyph>
<glyph name="circumflex" format="2">
  <advance width="465"/>
  <unicode hex="02C6"/>
  <outline>
    <contour>
      <point x="232" y="675" type="line"/>
      <point x="55" y="605" type="line"/>
      <point x="50" y="610" type="line"/>
      <point x="180" y="770" type="line"/>
      <point x="285" y="770" type="line"/>
      <point x="415" y="610" type="line"/>
      <point x="410" y="605" type="line"/>
    </contour>
  </outline>
</glyph>
<glyph name="caron" format="2">
  <advance width="465"/>
  <unicode hex="02C7"/>
  <outline>
    <contour>
      <point x="233" y="715" type="line"/>
      <point x="410" y="785" type="line"/>
      <point x="415" y="780" type="line"/>
      <point x="285" y="620" type="line"/>
      <point x="180" y="620" type="line"/>
      <point x="50" y="780" type="line"/>
      <point x="55" y="785" type="line"/>
    </contour>
  </outline>
</glyph>
<glyph name="ring" format="2">
  <advance width="320"/>
  <unicode hex="02DA"/>
  <outline>
    <contour>
      <point x="50" y="680" type="curve" smooth="yes"/>
      <point x="50" y="731"/>
      <point x="89" y="770"/>
      <point x="160" y="770" type="curve" smooth="yes"/>
      <point x="231" y="770"/>
      <point x="270" y="731"/>
      <point x="270" y="680" type="curve" smooth="yes"/>
      <point x="270" y="629"/>
      <point x="231" y="590"/>
      <point x="160" y="590" type="curve" smooth="yes"/>
      <point x="89" y="590"/>
      <point x="50" y="629"/>
    </contour>
    <contour>
      <point x="135" y="680" type="curve" smooth="yes"/>
      <point x="135" y="622"/>
      <point x="143" y="599"/>
      <point x="160" y="599" type="curve" smooth="yes"/>
      <point x="177" y="599"/>
      <point x="185" y="622"/>
      <point x="185" y="680" type="curve" smooth="yes"/>
      <point x="185" y="738"/>
      <point x="177" y="761"/>
      <point x="160" y="761" type="curve" smooth="yes"/>
      <point x="143" y="761"/>
      <point x="135" y="738"/>
    </contour>
  </outline>
</glyph>
<glyph name="ogonek" format="2">
  <advance width="2252"/>
  <unicode hex="02DB"/>
  <outline>
    <contour>
      <point x="1692" y="-544" type="line"/>
      <point x="1630" y="-658"/>
      <point x="1552" y="-844"/>
      <point x="1138" y="-844" type="curve" smooth="yes"/>
      <point x="806" y="-844"/>
      <point x="574" y="-738"/>
      <point x="574" y="-492" type="curve" smooth="yes"/>
      <point x="574" y="-164"/>
      <point x="1054" y="86"/>
      <point x="1426" y="188" type="curve"/>
      <point x="1436" y="161" type="line"/>
      <point x="1390" y="133"/>
      <point x="1282" y="-48"/>
      <point x="1282" y="-339" type="curve" smooth="yes"/>
      <point x="1282" y="-603"/>
      <point x="1375" y="-711"/>
      <point x="1473" y="-711" type="curve" smooth="yes"/>
      <point x="1558" y="-711"/>
      <point x="1607" y="-638"/>
      <point x="1663" y="-530" type="curve"/>
    </contour>
  </outline>
</glyph>
<glyph name="tilde" format="2">
  <advance width="448"/>
  <unicode hex="02DC"/>
  <outline>
    <contour>
      <point x="113" y="639" type="curve" smooth="yes"/>
      <point x="78" y="639"/>
      <point x="59" y="612"/>
      <point x="59" y="590" type="curve"/>
      <point x="50" y="590" type="line"/>
      <point x="50" y="675"/>
      <point x="70" y="757"/>
      <point x="149" y="757" type="curve" smooth="yes"/>
      <point x="239" y="757"/>
      <point x="259" y="678"/>
      <point x="335" y="678" type="curve" smooth="yes"/>
      <point x="370" y="678"/>
      <point x="389" y="705"/>
      <point x="389" y="727" type="curve"/>
      <point x="398" y="727" type="line"/>
      <point x="398" y="632"/>
      <point x="398" y="560"/>
      <point x="309" y="560" type="curve" smooth="yes"/>
      <point x="222" y="560"/>
      <point x="196" y="639"/>
    </contour>
  </outline>
</glyph>
<glyph name="pi" format="2">
  <advance width="681"/>
  <unicode hex="03C0"/>
  <outline>
    <contour>
      <point x="646" y="103" type="line"/>
      <point x="623" y="33"/>
      <point x="581" y="-10"/>
      <point x="488" y="-10" type="curve" smooth="yes"/>
      <point x="401" y="-10"/>
      <point x="346" y="24"/>
      <point x="346" y="93" type="curve" smooth="yes"/>
      <point x="346" y="420" type="line"/>
      <point x="536" y="420" type="line"/>
      <point x="536" y="79" type="line" smooth="yes"/>
      <point x="536" y="59"/>
      <point x="545" y="38"/>
      <point x="575" y="38" type="curve" smooth="yes"/>
      <point x="597" y="38"/>
      <point x="621" y="59"/>
      <point x="640" y="107" type="curve"/>
    </contour>
    <contour>
      <point x="144" y="-10" type="curve" smooth="yes"/>
      <point x="83" y="-10"/>
      <point x="35" y="23"/>
      <point x="35" y="78" type="curve" smooth="yes"/>
      <point x="35" y="196"/>
      <point x="237" y="132"/>
      <point x="237" y="279" type="curve" smooth="yes"/>
      <point x="237" y="450" type="line"/>
      <point x="293" y="450" type="line"/>
      <point x="293" y="243" type="line" smooth="yes"/>
      <point x="293" y="85"/>
      <point x="242" y="-10"/>
    </contour>
    <contour>
      <point x="626" y="460" type="line"/>
      <point x="626" y="270" type="line"/>
      <point x="50" y="270" type="line"/>
      <point x="50" y="195" type="line"/>
      <point x="41" y="195" type="line"/>
      <point x="41" y="460" type="line"/>
    </contour>
  </outline>
</glyph>
<glyph name="uni1E9E" format="2">
  <advance width="981"/>
  <unicode hex="1E9E"/>
  <outline>
    <contour>
      <point x="15" y="9" type="line"/>
      <point x="415" y="9" type="line"/>
      <point x="415" y="0" type="line"/>
      <point x="15" y="0" type="line"/>
    </contour>
    <contour>
      <point x="700" y="383" type="line"/>
      <point x="657" y="390"/>
      <point x="536" y="414"/>
      <point x="493" y="415" type="curve"/>
      <point x="741" y="726" type="line"/>
      <point x="713" y="736"/>
      <point x="657" y="749"/>
      <point x="593" y="749" type="curve" smooth="yes"/>
      <point x="379" y="749"/>
      <point x="325" y="633"/>
      <point x="325" y="431" type="curve" smooth="yes"/>
      <point x="325" y="0" type="line"/>
      <point x="105" y="0" type="line"/>
      <point x="105" y="441" type="line" smooth="yes"/>
      <point x="105" y="664"/>
      <point x="320" y="760"/>
      <point x="593" y="760" type="curve" smooth="yes"/>
      <point x="746" y="760"/>
      <point x="871" y="694"/>
      <point x="911" y="651" type="curve"/>
    </contour>
    <contour>
      <point x="406" y="141" type="curve"/>
      <point x="424" y="71"/>
      <point x="504" y="6"/>
      <point x="601" y="6" type="curve" smooth="yes"/>
      <point x="695" y="6"/>
      <point x="720" y="86"/>
      <point x="720" y="210" type="curve" smooth="yes"/>
      <point x="720" y="314"/>
      <point x="662" y="406"/>
      <point x="493" y="406" type="curve"/>
      <point x="493" y="415" type="line"/>
      <point x="814" y="415"/>
      <point x="941" y="345"/>
      <point x="941" y="215" type="curve" smooth="yes"/>
      <point x="941" y="75"/>
      <point x="802" y="-10"/>
      <point x="641" y="-10" type="curve" smooth="yes"/>
      <point x="469" y="-10"/>
      <point x="385" y="94"/>
      <point x="385" y="186" type="curve" smooth="yes"/>
      <point x="385" y="257"/>
      <point x="435" y="306"/>
      <point x="500" y="306" type="curve" smooth="yes"/>
      <point x="560" y="306"/>
      <point x="604" y="262"/>
      <point x="604" y="196" type="curve" smooth="yes"/>
      <point x="604" y="134"/>
      <point x="551" y="90"/>
      <point x="492" y="90" type="curve" smooth="yes"/>
      <point x="449" y="90"/>
      <point x="417" y="119"/>
    </contour>
  </outline>
</glyph>
<glyph name="uni2010" format="2">
  <advance width="360"/>
  <unicode hex="2010"/>
  <outline>
    <contour>
      <point x="60" y="280" type="line"/>
      <point x="300" y="280" type="line"/>
      <point x="300" y="270" type="line"/>
      <point x="60" y="270" type="line"/>
    </contour>
  </outline>
</glyph>
<glyph name="perthousand" format="2">
  <advance width="12400"/>
  <unicode hex="2030"/>
  <outline>
    <contour>
      <point x="9880" y="1680" type="curve" smooth="yes"/>
      <point x="9880" y="368"/>
      <point x="10008" y="-8"/>
      <point x="10200" y="-8" type="curve" smooth="yes"/>
      <point x="10392" y="-8"/>
      <point x="10520" y="368"/>
      <point x="10520" y="1680" type="curve" smooth="yes"/>
      <point x="10520" y="2992"/>
      <point x="10392" y="3368"/>
      <point x="10200" y="3368" type="curve" smooth="yes"/>
      <point x="10008" y="3368"/>
      <point x="9880" y="2992"/>
    </contour>
    <contour>
      <point x="8280" y="1680" type="curve" smooth="yes"/>
      <point x="8280" y="2824"/>
      <point x="9296" y="3440"/>
      <point x="10200" y="3440" type="curve" smooth="yes"/>
      <point x="11104" y="3440"/>
      <point x="12120" y="2824"/>
      <point x="12120" y="1680" type="curve" smooth="yes"/>
      <point x="12120" y="536"/>
      <point x="10944" y="-80"/>
      <point x="10200" y="-80" type="curve" smooth="yes"/>
      <point x="9296" y="-80"/>
      <point x="8280" y="536"/>
    </contour>
    <contour>
      <point x="5800" y="1680" type="curve" smooth="yes"/>
      <point x="5800" y="368"/>
      <point x="5928" y="-8"/>
      <point x="6120" y="-8" type="curve" smooth="yes"/>
      <point x="6312" y="-8"/>
      <point x="6440" y="368"/>
      <point x="6440" y="1680" type="curve" smooth="yes"/>
      <point x="6440" y="2992"/>
      <point x="6312" y="3368"/>
      <point x="6120" y="3368" type="curve" smooth="yes"/>
      <point x="5928" y="3368"/>
      <point x="5800" y="2992"/>
    </contour>
    <contour>
      <point x="4200" y="1680" type="curve" smooth="yes"/>
      <point x="4200" y="2824"/>
      <point x="5216" y="3440"/>
      <point x="6120" y="3440" type="curve" smooth="yes"/>
      <point x="7024" y="3440"/>
      <point x="8040" y="2824"/>
      <point x="8040" y="1680" type="curve" smooth="yes"/>
      <point x="8040" y="536"/>
      <point x="6864" y="-80"/>
      <point x="6120" y="-80" type="curve" smooth="yes"/>
      <point x="5216" y="-80"/>
      <point x="4200" y="536"/>
    </contour>
    <contour>
      <point x="6192" y="6000" type="line"/>
      <point x="6280" y="6000" type="line"/>
      <point x="2128" y="0" type="line"/>
      <point x="2040" y="0" type="line"/>
    </contour>
    <contour>
      <point x="1880" y="4320" type="curve" smooth="yes"/>
      <point x="1880" y="3008"/>
      <point x="2008" y="2632"/>
      <point x="2200" y="2632" type="curve" smooth="yes"/>
      <point x="2392" y="2632"/>
      <point x="2520" y="3008"/>
      <point x="2520" y="4320" type="curve" smooth="yes"/>
      <point x="2520" y="5632"/>
      <point x="2392" y="6008"/>
      <point x="2200" y="6008" type="curve" smooth="yes"/>
      <point x="2008" y="6008"/>
      <point x="1880" y="5632"/>
    </contour>
    <contour>
      <point x="280" y="4320" type="curve" smooth="yes"/>
      <point x="280" y="5464"/>
      <point x="1296" y="6080"/>
      <point x="2200" y="6080" type="curve" smooth="yes"/>
      <point x="3104" y="6080"/>
      <point x="4120" y="5464"/>
      <point x="4120" y="4320" type="curve" smooth="yes"/>
      <point x="4120" y="3176"/>
      <point x="2944" y="2560"/>
      <point x="2200" y="2560" type="curve" smooth="yes"/>
      <point x="1296" y="2560"/>
      <point x="280" y="3176"/>
    </contour>
  </outline>
</glyph>
<glyph name="uni2031" format="2">
  <advance width="2060"/>
  <unicode hex="2031"/>
  <outline>
    <contour>
      <point x="1745" y="210" type="curve" smooth="yes"/>
      <point x="1745" y="46"/>
      <point x="1761" y="-1"/>
      <point x="1785" y="-1" type="curve" smooth="yes"/>
      <point x="1809" y="-1"/>
      <point x="1825" y="46"/>
      <point x="1825" y="210" type="curve" smooth="yes"/>
      <point x="1825" y="374"/>
      <point x="1809" y="421"/>
      <point x="1785" y="421" type="curve" smooth="yes"/>
      <point x="1761" y="421"/>
      <point x="1745" y="374"/>
    </contour>
    <contour>
      <point x="1545" y="210" type="curve" smooth="yes"/>
      <point x="1545" y="353"/>
      <point x="1672" y="430"/>
      <point x="1785" y="430" type="curve" smooth="yes"/>
      <point x="1898" y="430"/>
      <point x="2025" y="353"/>
      <point x="2025" y="210" type="curve" smooth="yes"/>
      <point x="2025" y="67"/>
      <point x="1878" y="-10"/>
      <point x="1785" y="-10" type="curve" smooth="yes"/>
      <point x="1672" y="-10"/>
      <point x="1545" y="67"/>
    </contour>
    <contour>
      <point x="1235" y="210" type="curve" smooth="yes"/>
      <point x="1235" y="46"/>
      <point x="1251" y="-1"/>
      <point x="1275" y="-1" type="curve" smooth="yes"/>
      <point x="1299" y="-1"/>
      <point x="1315" y="46"/>
      <point x="1315" y="210" type="curve" smooth="yes"/>
      <point x="1315" y="374"/>
      <point x="1299" y="421"/>
      <point x="1275" y="421" type="curve" smooth="yes"/>
      <point x="1251" y="421"/>
      <point x="1235" y="374"/>
    </contour>
    <contour>
      <point x="1035" y="210" type="curve" smooth="yes"/>
      <point x="1035" y="353"/>
      <point x="1162" y="430"/>
      <point x="1275" y="430" type="curve" smooth="yes"/>
      <point x="1388" y="430"/>
      <point x="1515" y="353"/>
      <point x="1515" y="210" type="curve" smooth="yes"/>
      <point x="1515" y="67"/>
      <point x="1368" y="-10"/>
      <point x="1275" y="-10" type="curve" smooth="yes"/>
      <point x="1162" y="-10"/>
      <point x="1035" y="67"/>
    </contour>
    <contour>
      <point x="725" y="210" type="curve" smooth="yes"/>
      <point x="725" y="46"/>
      <point x="741" y="-1"/>
      <point x="765" y="-1" type="curve" smooth="yes"/>
      <point x="789" y="-1"/>
      <point x="805" y="46"/>
      <point x="805" y="210" type="curve" smooth="yes"/>
      <point x="805" y="374"/>
      <point x="789" y="421"/>
      <point x="765" y="421" type="curve" smooth="yes"/>
      <point x="741" y="421"/>
      <point x="725" y="374"/>
    </contour>
    <contour>
      <point x="525" y="210" type="curve" smooth="yes"/>
      <point x="525" y="353"/>
      <point x="652" y="430"/>
      <point x="765" y="430" type="curve" smooth="yes"/>
      <point x="878" y="430"/>
      <point x="1005" y="353"/>
      <point x="1005" y="210" type="curve" smooth="yes"/>
      <point x="1005" y="67"/>
      <point x="858" y="-10"/>
      <point x="765" y="-10" type="curve" smooth="yes"/>
      <point x="652" y="-10"/>
      <point x="525" y="67"/>
    </contour>
    <contour>
      <point x="774" y="750" type="line"/>
      <point x="785" y="750" type="line"/>
      <point x="266" y="0" type="line"/>
      <point x="255" y="0" type="line"/>
    </contour>
    <contour>
      <point x="235" y="540" type="curve" smooth="yes"/>
      <point x="235" y="376"/>
      <point x="251" y="329"/>
      <point x="275" y="329" type="curve" smooth="yes"/>
      <point x="299" y="329"/>
      <point x="315" y="376"/>
      <point x="315" y="540" type="curve" smooth="yes"/>
      <point x="315" y="704"/>
      <point x="299" y="751"/>
      <point x="275" y="751" type="curve" smooth="yes"/>
      <point x="251" y="751"/>
      <point x="235" y="704"/>
    </contour>
    <contour>
      <point x="35" y="540" type="curve" smooth="yes"/>
      <point x="35" y="683"/>
      <point x="162" y="760"/>
      <point x="275" y="760" type="curve" smooth="yes"/>
      <point x="388" y="760"/>
      <point x="515" y="683"/>
      <point x="515" y="540" type="curve" smooth="yes"/>
      <point x="515" y="397"/>
      <point x="368" y="320"/>
      <point x="275" y="320" type="curve" smooth="yes"/>
      <point x="162" y="320"/>
      <point x="35" y="397"/>
    </contour>
  </outline>
</glyph>
<glyph name="uni203D" format="2">
  <advance width="5760"/>
  <unicode hex="203D"/>
  <outline>
    <contour>
      <point x="3568" y="4432" type="curve" smooth="yes"/>
      <point x="3480" y="3664"/>
      <point x="2816" y="2784"/>
      <point x="2816" y="2224" type="curve"/>
      <point x="2736" y="2224" type="line"/>
      <point x="2736" y="2784"/>
      <point x="2232" y="3664"/>
      <point x="2144" y="4432" type="curve" smooth="yes"/>
      <point x="2136" y="4488"/>
      <point x="2136" y="4536"/>
      <point x="2136" y="4584" type="curve" smooth="yes"/>
      <point x="2136" y="4808"/>
      <point x="2320" y="5184"/>
      <point x="2856" y="5184" type="curve" smooth="yes"/>
      <point x="3392" y="5184"/>
      <point x="3576" y="4808"/>
      <point x="3576" y="4584" type="curve" smooth="yes"/>
      <point x="3576" y="4536"/>
      <point x="3576" y="4488"/>
    </contour>
    <contour>
      <point x="480" y="4568" type="curve" smooth="yes"/>
      <point x="480" y="5304"/>
      <point x="1312" y="6080"/>
      <point x="2848" y="6080" type="curve" smooth="yes"/>
      <point x="4056" y="6080"/>
      <point x="5360" y="5520"/>
      <point x="5360" y="4400" type="curve" smooth="yes"/>
      <point x="5360" y="3280"/>
      <point x="3904" y="2680"/>
      <point x="2776" y="2680" type="curve"/>
      <point x="2776" y="2736" type="line"/>
      <point x="3392" y="2736"/>
      <point x="3992" y="3640"/>
      <point x="3992" y="4480" type="curve" smooth="yes"/>
      <point x="3992" y="5232"/>
      <point x="3536" y="5944"/>
      <point x="2664" y="5944" type="curve" smooth="yes"/>
      <point x="1496" y="5944"/>
      <point x="808" y="5392"/>
      <point x="680" y="4920" type="curve"/>
      <point x="728" y="5080"/>
      <point x="992" y="5280"/>
      <point x="1336" y="5280" type="curve" smooth="yes"/>
      <point x="1808" y="5280"/>
      <point x="2032" y="4800"/>
      <point x="2032" y="4520" type="curve" smooth="yes"/>
      <point x="2032" y="3960"/>
      <point x="1616" y="3672"/>
      <point x="1256" y="3672" type="curve" smooth="yes"/>
      <point x="856" y="3672"/>
      <point x="480" y="4000"/>
    </contour>
    <component base="period" xOffset="1432"/>
  </outline>
</glyph>
<glyph name="Euro" format="2">
  <advance width="5920"/>
  <unicode hex="20AC"/>
  <outline>
    <contour>
      <point x="5304" y="5344" type="curve"/>
      <point x="5104" y="5640"/>
      <point x="4576" y="5968"/>
      <point x="3912" y="5968" type="curve" smooth="yes"/>
      <point x="2960" y="5968"/>
      <point x="2720" y="4712"/>
      <point x="2720" y="3000" type="curve" smooth="yes"/>
      <point x="2720" y="1128"/>
      <point x="3008" y="88"/>
      <point x="3800" y="88" type="curve" smooth="yes"/>
      <point x="4560" y="88"/>
      <point x="5184" y="696"/>
      <point x="5384" y="1424" type="curve"/>
      <point x="5464" y="1424" type="line"/>
      <point x="5256" y="648"/>
      <point x="4592" y="-80"/>
      <point x="3464" y="-80" type="curve" smooth="yes"/>
      <point x="1856" y="-80"/>
      <point x="760" y="1160"/>
      <point x="760" y="3000" type="curve" smooth="yes"/>
      <point x="760" y="4680"/>
      <point x="1824" y="6080"/>
      <point x="3672" y="6080" type="curve" smooth="yes"/>
      <point x="4888" y="6080"/>
      <point x="5640" y="5424"/>
      <point x="5640" y="4768" type="curve" smooth="yes"/>
      <point x="5640" y="4200"/>
      <point x="5264" y="3872"/>
      <point x="4784" y="3872" type="curve" smooth="yes"/>
      <point x="4344" y="3872"/>
      <point x="3928" y="4160"/>
      <point x="3928" y="4720" type="curve" smooth="yes"/>
      <point x="3928" y="5240"/>
      <point x="4312" y="5560"/>
      <point x="4784" y="5560" type="curve" smooth="yes"/>
      <point x="5008" y="5560"/>
      <point x="5224" y="5440"/>
    </contour>
    <component base="equal" xOffset="-240" yOffset="-560"/>
  </outline>
</glyph>
<glyph name="uniFB01" format="2">
  <advance width="5600"/>
  <unicode hex="FB01"/>
  <outline>
    <contour>
      <point x="800" y="4096" type="line" smooth="yes"/>
      <point x="800" y="5384"/>
      <point x="1816" y="6080"/>
      <point x="3416" y="6080" type="curve" smooth="yes"/>
      <point x="4304" y="6080"/>
      <point x="4880" y="5584"/>
      <point x="4880" y="5048" type="curve" smooth="yes"/>
      <point x="4880" y="4560"/>
      <point x="4584" y="4232"/>
      <point x="4104" y="4232" type="curve" smooth="yes"/>
      <point x="3664" y="4232"/>
      <point x="3256" y="4504"/>
      <point x="3256" y="4984" type="curve" smooth="yes"/>
      <point x="3256" y="5464"/>
      <point x="3608" y="5760"/>
      <point x="4040" y="5760" type="curve" smooth="yes"/>
      <point x="4328" y="5760"/>
      <point x="4552" y="5624"/>
      <point x="4632" y="5400" type="curve"/>
      <point x="4496" y="5760"/>
      <point x="4024" y="6008"/>
      <point x="3416" y="6008" type="curve" smooth="yes"/>
      <point x="2536" y="6008"/>
      <point x="2240" y="5336"/>
      <point x="2240" y="4320" type="curve" smooth="yes"/>
      <point x="2240" y="0" type="line"/>
      <point x="800" y="0" type="line"/>
    </contour>
    <contour>
      <point x="80" y="72" type="line"/>
      <point x="5440" y="72" type="line"/>
      <point x="5440" y="0" type="line"/>
      <point x="80" y="0" type="line"/>
    </contour>
    <contour>
      <point x="3360" y="3608" type="line"/>
      <point x="80" y="3608" type="line"/>
      <point x="80" y="3680" type="line"/>
      <point x="4880" y="3680" type="line"/>
      <point x="4880" y="0" type="line"/>
      <point x="3360" y="0" type="line"/>
    </contour>
  </outline>
</glyph>
<glyph name="uniFB02" format="2">
  <advance width="3194"/>
  <unicode hex="FB02"/>
  <outline>
    <contour>
      <point x="41" y="37" type="line"/>
      <point x="3133" y="37" type="line"/>
      <point x="3133" y="0" type="line"/>
      <point x="41" y="0" type="line"/>
    </contour>
    <contour>
      <point x="41" y="1884" type="line"/>
      <point x="1720" y="1884" type="line"/>
      <point x="1720" y="1847" type="line"/>
      <point x="41" y="1847" type="line"/>
    </contour>
    <contour>
      <point x="1987" y="2990" type="line"/>
      <point x="2765" y="3154" type="line"/>
      <point x="2765" y="0" type="line"/>
      <point x="1987" y="0" type="line"/>
    </contour>
    <contour>
      <point x="2105" y="2769" type="curve"/>
      <point x="2060" y="2904"/>
      <point x="1876" y="3072"/>
      <point x="1626" y="3072" type="curve" smooth="yes"/>
      <point x="1298" y="3072"/>
      <point x="1147" y="2732"/>
      <point x="1147" y="2212" type="curve" smooth="yes"/>
      <point x="1147" y="0" type="line"/>
      <point x="410" y="0" type="line"/>
      <point x="410" y="2097" type="line" smooth="yes"/>
      <point x="410" y="2715"/>
      <point x="930" y="3113"/>
      <point x="1585" y="3113" type="curve" smooth="yes"/>
      <point x="1958" y="3113"/>
      <point x="2212" y="2859"/>
      <point x="2212" y="2585" type="curve" smooth="yes"/>
      <point x="2212" y="2335"/>
      <point x="2061" y="2167"/>
      <point x="1815" y="2167" type="curve" smooth="yes"/>
      <point x="1590" y="2167"/>
      <point x="1380" y="2306"/>
      <point x="1380" y="2552" type="curve" smooth="yes"/>
      <point x="1380" y="2798"/>
      <point x="1540" y="2957"/>
      <point x="1761" y="2957" type="curve" smooth="yes"/>
      <point x="1986" y="2957"/>
      <point x="2105" y="2769"/>
    </contour>
  </outline>
</glyph>
<glyph name="uniFB03" format="2">
  <advance width="8160"/>
  <unicode hex="FB03"/>
  <outline>
    <contour>
      <point x="3360" y="4096" type="line" smooth="yes"/>
      <point x="3360" y="5384"/>
      <point x="4376" y="6080"/>
      <point x="5976" y="6080" type="curve" smooth="yes"/>
      <point x="6864" y="6080"/>
      <point x="7440" y="5584"/>
      <point x="7440" y="5048" type="curve" smooth="yes"/>
      <point x="7440" y="4560"/>
      <point x="7144" y="4232"/>
      <point x="6664" y="4232" type="curve" smooth="yes"/>
      <point x="6224" y="4232"/>
      <point x="5816" y="4504"/>
      <point x="5816" y="4984" type="curve" smooth="yes"/>
      <point x="5816" y="5464"/>
      <point x="6152" y="5760"/>
      <point x="6584" y="5760" type="curve" smooth="yes"/>
      <point x="6936" y="5760"/>
      <point x="7136" y="5592"/>
      <point x="7192" y="5400" type="curve"/>
      <point x="7048" y="5752"/>
      <point x="6584" y="6000"/>
      <point x="5976" y="6000" type="curve" smooth="yes"/>
      <point x="5096" y="6000"/>
      <point x="4800" y="5336"/>
      <point x="4800" y="4320" type="curve" smooth="yes"/>
      <point x="4800" y="0" type="line"/>
      <point x="3360" y="0" type="line"/>
    </contour>
    <contour>
      <point x="80" y="72" type="line"/>
      <point x="8000" y="72" type="line"/>
      <point x="8000" y="0" type="line"/>
      <point x="80" y="0" type="line"/>
    </contour>
    <contour>
      <point x="800" y="3696" type="line" smooth="yes"/>
      <point x="800" y="4896"/>
      <point x="1816" y="5680"/>
      <point x="3176" y="5680" type="curve" smooth="yes"/>
      <point x="3904" y="5680"/>
      <point x="4480" y="5184"/>
      <point x="4480" y="4648" type="curve" smooth="yes"/>
      <point x="4480" y="4160"/>
      <point x="4184" y="3832"/>
      <point x="3704" y="3832" type="curve" smooth="yes"/>
      <point x="3264" y="3832"/>
      <point x="2856" y="4104"/>
      <point x="2856" y="4584" type="curve" smooth="yes"/>
      <point x="2856" y="5064"/>
      <point x="3168" y="5376"/>
      <point x="3600" y="5376" type="curve" smooth="yes"/>
      <point x="3944" y="5376"/>
      <point x="4152" y="5160"/>
      <point x="4152" y="5160" type="curve"/>
      <point x="4000" y="5392"/>
      <point x="3664" y="5592"/>
      <point x="3256" y="5592" type="curve" smooth="yes"/>
      <point x="2616" y="5592"/>
      <point x="2240" y="4936"/>
      <point x="2240" y="3920" type="curve" smooth="yes"/>
      <point x="2240" y="0" type="line"/>
      <point x="800" y="0" type="line"/>
    </contour>
    <contour>
      <point x="5920" y="3608" type="line"/>
      <point x="80" y="3608" type="line"/>
      <point x="80" y="3680" type="line"/>
      <point x="7440" y="3680" type="line"/>
      <point x="7440" y="0" type="line"/>
      <point x="5920" y="0" type="line"/>
    </contour>
  </outline>
</glyph>
<glyph name="uniFB04" format="2">
  <advance width="1120"/>
  <unicode hex="FB04"/>
  <outline>
    <contour>
      <point x="10" y="9" type="line"/>
      <point x="1105" y="9" type="line"/>
      <point x="1105" y="0" type="line"/>
      <point x="10" y="0" type="line"/>
    </contour>
    <contour>
      <point x="10" y="460" type="line"/>
      <point x="760" y="460" type="line"/>
      <point x="760" y="451" type="line"/>
      <point x="10" y="451" type="line"/>
    </contour>
    <contour>
      <point x="825" y="730" type="line"/>
      <point x="1015" y="770" type="line"/>
      <point x="1015" y="0" type="line"/>
      <point x="825" y="0" type="line"/>
    </contour>
    <contour>
      <point x="520" y="645" type="curve"/>
      <point x="501" y="674"/>
      <point x="456" y="699"/>
      <point x="407" y="699" type="curve" smooth="yes"/>
      <point x="327" y="699"/>
      <point x="280" y="617"/>
      <point x="280" y="490" type="curve" smooth="yes"/>
      <point x="280" y="0" type="line"/>
      <point x="100" y="0" type="line"/>
      <point x="100" y="462" type="line" smooth="yes"/>
      <point x="100" y="612"/>
      <point x="227" y="710"/>
      <point x="397" y="710" type="curve" smooth="yes"/>
      <point x="488" y="710"/>
      <point x="560" y="648"/>
      <point x="560" y="581" type="curve" smooth="yes"/>
      <point x="560" y="520"/>
      <point x="523" y="479"/>
      <point x="463" y="479" type="curve" smooth="yes"/>
      <point x="408" y="479"/>
      <point x="357" y="513"/>
      <point x="357" y="573" type="curve" smooth="yes"/>
      <point x="357" y="633"/>
      <point x="396" y="672"/>
      <point x="450" y="672" type="curve" smooth="yes"/>
      <point x="486" y="672"/>
      <point x="520" y="645"/>
    </contour>
    <contour>
      <point x="851" y="682" type="curve"/>
      <point x="836" y="723"/>
      <point x="783" y="751"/>
      <point x="737" y="751" type="curve" smooth="yes"/>
      <point x="657" y="751"/>
      <point x="620" y="667"/>
      <point x="620" y="540" type="curve" smooth="yes"/>
      <point x="620" y="0" type="line"/>
      <point x="440" y="0" type="line"/>
      <point x="440" y="512" type="line" smooth="yes"/>
      <point x="440" y="663"/>
      <point x="567" y="760"/>
      <point x="727" y="760" type="curve" smooth="yes"/>
      <point x="818" y="760"/>
      <point x="880" y="698"/>
      <point x="880" y="631" type="curve" smooth="yes"/>
      <point x="880" y="570"/>
      <point x="843" y="529"/>
      <point x="783" y="529" type="curve" smooth="yes"/>
      <point x="728" y="529"/>
      <point x="677" y="563"/>
      <point x="677" y="623" type="curve" smooth="yes"/>
      <point x="677" y="683"/>
      <point x="716" y="722"/>
      <point x="770" y="722" type="curve" smooth="yes"/>
      <point x="825" y="722"/>
      <point x="851" y="682"/>
    </contour>
  </outline>
</glyph>
<glyph name="R.alt" format="2">
  <advance width="3194"/>
  <outline>
    <contour>
      <point x="1577" y="1569" type="curve" smooth="yes"/>
      <point x="799" y="1569" type="line"/>
      <point x="799" y="1597" type="line"/>
      <point x="1372" y="1597" type="line" smooth="yes"/>
      <point x="1765" y="1597"/>
      <point x="1946" y="1786"/>
      <point x="1946" y="2314" type="curve" smooth="yes"/>
      <point x="1946" y="2842"/>
      <point x="1765" y="3035"/>
      <point x="1372" y="3035" type="curve" smooth="yes"/>
      <point x="61" y="3035" type="line"/>
      <point x="61" y="3072" type="line"/>
      <point x="1577" y="3072" type="line" smooth="yes"/>
      <point x="2318" y="3072"/>
      <point x="2847" y="2846"/>
      <point x="2847" y="2314" type="curve" smooth="yes"/>
      <point x="2847" y="1782"/>
      <point x="2359" y="1569"/>
    </contour>
    <contour>
      <point x="61" y="37" type="line"/>
      <point x="1679" y="37" type="line"/>
      <point x="1679" y="0" type="line"/>
      <point x="61" y="0" type="line"/>
    </contour>
    <contour>
      <point x="430" y="3072" type="line"/>
      <point x="1311" y="3072" type="line"/>
      <point x="1311" y="0" type="line"/>
      <point x="430" y="0" type="line"/>
    </contour>
    <contour>
      <point x="3154" y="0" type="line"/>
      <point x="3088" y="0"/>
      <point x="2687" y="0"/>
      <point x="2540" y="0" type="curve" smooth="yes"/>
      <point x="1340" y="0"/>
      <point x="2401" y="1557"/>
      <point x="1352" y="1557" type="curve" smooth="yes"/>
      <point x="799" y="1557" type="line"/>
      <point x="799" y="1580" type="line"/>
      <point x="1925" y="1580" type="line" smooth="yes"/>
      <point x="3289" y="1580"/>
      <point x="2425" y="37"/>
      <point x="3011" y="37" type="curve" smooth="yes"/>
      <point x="3097" y="37"/>
      <point x="3097" y="37"/>
      <point x="3154" y="37" type="curve"/>
    </contour>
  </outline>
</glyph>
<glyph name="fj.lig" format="2">
  <advance width="5416"/>
  <outline>
    <contour>
      <point x="80" y="72" type="line"/>
      <point x="2960" y="72" type="line"/>
      <point x="2960" y="0" type="line"/>
      <point x="80" y="0" type="line"/>
    </contour>
    <contour>
      <point x="4880" y="-96" type="line" smooth="yes"/>
      <point x="4880" y="-1144"/>
      <point x="3864" y="-2080"/>
      <point x="2664" y="-2080" type="curve" smooth="yes"/>
      <point x="1856" y="-2080"/>
      <point x="1200" y="-1704"/>
      <point x="1200" y="-1088" type="curve" smooth="yes"/>
      <point x="1200" y="-600"/>
      <point x="1576" y="-232"/>
      <point x="2056" y="-232" type="curve" smooth="yes"/>
      <point x="2496" y="-232"/>
      <point x="2904" y="-504"/>
      <point x="2904" y="-984" type="curve" smooth="yes"/>
      <point x="2904" y="-1464"/>
      <point x="2544" y="-1752"/>
      <point x="2048" y="-1752" type="curve" smooth="yes"/>
      <point x="1760" y="-1752"/>
      <point x="1584" y="-1592"/>
      <point x="1504" y="-1408" type="curve"/>
      <point x="1576" y="-1728"/>
      <point x="2000" y="-1984"/>
      <point x="2544" y="-1984" type="curve" smooth="yes"/>
      <point x="3504" y="-1984"/>
      <point x="3360" y="-856"/>
      <point x="3360" y="160" type="curve" smooth="yes"/>
      <point x="3360" y="3608" type="line"/>
      <point x="80" y="3608" type="line"/>
      <point x="80" y="3680" type="line"/>
      <point x="4880" y="3680" type="line"/>
    </contour>
    <contour>
      <point x="4568" y="5544" type="curve"/>
      <point x="4384" y="5776"/>
      <point x="4024" y="6000"/>
      <point x="3416" y="6000" type="curve" smooth="yes"/>
      <point x="2536" y="6000"/>
      <point x="2240" y="5336"/>
      <point x="2240" y="4320" type="curve" smooth="yes"/>
      <point x="2240" y="0" type="line"/>
      <point x="800" y="0" type="line"/>
      <point x="800" y="4096" type="line" smooth="yes"/>
      <point x="800" y="5384"/>
      <point x="1816" y="6080"/>
      <point x="3416" y="6080" type="curve" smooth="yes"/>
      <point x="4304" y="6080"/>
      <point x="4880" y="5584"/>
      <point x="4880" y="5048" type="curve" smooth="yes"/>
      <point x="4880" y="4560"/>
      <point x="4584" y="4232"/>
      <point x="4104" y="4232" type="curve" smooth="yes"/>
      <point x="3664" y="4232"/>
      <point x="3256" y="4504"/>
      <point x="3256" y="4984" type="curve" smooth="yes"/>
      <point x="3256" y="5464"/>
      <point x="3608" y="5760"/>
      <point x="4040" y="5760" type="curve" smooth="yes"/>
      <point x="4288" y="5760"/>
      <point x="4480" y="5640"/>
    </contour>
  </outline>
</glyph>
<glyph name="four.alt" format="2">
  <advance width="715"/>
  <outline>
    <contour>
      <point x="650" y="9" type="line"/>
      <point x="650" y="0" type="line"/>
      <point x="265" y="0" type="line"/>
      <point x="265" y="9" type="line"/>
    </contour>
    <contour>
      <point x="575" y="498" type="curve"/>
      <point x="575" y="-1" type="line"/>
      <point x="360" y="-1" type="line"/>
      <point x="360" y="428" type="line"/>
      <point x="420" y="428"/>
      <point x="535" y="468"/>
    </contour>
    <contour>
      <point x="32" y="200" type="curve"/>
      <point x="665" y="200" type="line"/>
      <point x="665" y="190" type="line"/>
      <point x="15" y="190" type="line"/>
      <point x="155" y="390"/>
      <point x="300" y="600"/>
      <point x="320" y="750" type="curve"/>
      <point x="558" y="750" type="line"/>
      <point x="539" y="555"/>
      <point x="173" y="394"/>
    </contour>
  </outline>
</glyph>
